<?xml version="1.0" encoding="UTF-8" standalone="no"?>
<!DOCTYPE svg PUBLIC "-//W3C//DTD SVG 1.1//EN" "http://www.w3.org/Graphics/SVG/1.1/DTD/svg11.dtd">
<svg width="100%" height="100%" viewBox="0 0 4000 4000" version="1.1" xmlns="http://www.w3.org/2000/svg" xmlns:xlink="http://www.w3.org/1999/xlink" xml:space="preserve" xmlns:serif="http://www.serif.com/" style="fill-rule:evenodd;clip-rule:evenodd;stroke-linejoin:round;stroke-miterlimit:2;">
    <g>
        <g>
            <rect x="-5.8" y="-89.4" width="4024.4" height="4115.4" style="fill:rgb(243,243,198);"/>
            <g>
                <g>
                    <circle cx="1187.6" cy="28.4" r="53.9" style="fill:rgb(228,176,197);"/>
                    <circle cx="1187.6" cy="567.7" r="53.9" style="fill:rgb(228,176,197);"/>
                    <circle cx="1187.6" cy="1107" r="26.9" style="fill:rgb(228,176,197);"/>
                    <circle cx="1187.6" cy="1646.3" r="26.9" style="fill:rgb(228,176,197);"/>
                    <circle cx="1187.6" cy="2185.6" r="18" style="fill:rgb(228,176,197);"/>
                    <circle cx="1187.6" cy="2724.9" r="9" style="fill:rgb(228,176,197);"/>
                    <circle cx="1726.9" cy="28.4" r="53.9" style="fill:rgb(228,176,197);"/>
                    <circle cx="1726.9" cy="567.7" r="26.9" style="fill:rgb(228,176,197);"/>
                    <circle cx="1726.9" cy="1107" r="26.9" style="fill:rgb(228,176,197);"/>
                    <circle cx="1726.9" cy="1646.3" r="18" style="fill:rgb(228,176,197);"/>
                    <circle cx="1726.9" cy="2185.6" r="9" style="fill:rgb(228,176,197);"/>
                    <circle cx="109" cy="28.4" r="53.9" style="fill:rgb(228,176,197);"/>
                    <circle cx="109" cy="567.7" r="53.9" style="fill:rgb(228,176,197);"/>
                    <circle cx="109" cy="1107" r="53.9" style="fill:rgb(228,176,197);"/>
                    <circle cx="109" cy="1646.3" r="53.9" style="fill:rgb(228,176,197);"/>
                    <circle cx="109" cy="2185.6" r="26.9" style="fill:rgb(228,176,197);"/>
                    <circle cx="109" cy="2724.9" r="26.9" style="fill:rgb(228,176,197);"/>
                    <circle cx="109" cy="3264.2" r="18" style="fill:rgb(228,176,197);"/>
                    <circle cx="109" cy="3803.5" r="9" style="fill:rgb(228,176,197);"/>
                    <circle cx="648.3" cy="28.4" r="53.9" style="fill:rgb(228,176,197);"/>
                    <circle cx="648.3" cy="567.7" r="53.9" style="fill:rgb(228,176,197);"/>
                    <circle cx="648.3" cy="1107" r="53.9" style="fill:rgb(228,176,197);"/>
                    <circle cx="648.3" cy="1646.3" r="26.9" style="fill:rgb(228,176,197);"/>
                    <circle cx="648.3" cy="2185.6" r="26.9" style="fill:rgb(228,176,197);"/>
                    <circle cx="648.3" cy="2724.9" r="18" style="fill:rgb(228,176,197);"/>
                    <circle cx="648.3" cy="3264.2" r="9" style="fill:rgb(228,176,197);"/>
                    <circle cx="2266.2" cy="28.4" r="26.9" style="fill:rgb(228,176,197);"/>
                    <circle cx="2266.2" cy="567.7" r="26.9" style="fill:rgb(228,176,197);"/>
                    <circle cx="2266.2" cy="1107" r="18" style="fill:rgb(228,176,197);"/>
                    <circle cx="2266.2" cy="1646.3" r="9" style="fill:rgb(228,176,197);"/>
                    <circle cx="2805.5" cy="28.4" r="26.9" style="fill:rgb(228,176,197);"/>
                    <circle cx="2805.5" cy="567.7" r="18" style="fill:rgb(228,176,197);"/>
                    <circle cx="2805.5" cy="1107" r="9" style="fill:rgb(228,176,197);"/>
                </g>
            </g>
            <g transform="matrix(0.8265,-0.563,0.563,0.8265,-943.771,285.229)">
                <ellipse cx="-9.2" cy="1673.6" rx="1129.1" ry="878.1" style="fill:rgb(104,174,225);"/>
            </g>
            <path d="M829,3164C717.8,3012.7 764.8,2457.7 829,2349.5C893.2,2241.3 1489.3,2098.7 1489.3,2098.7C1489.3,2098.7 2155.6,2247.4 2190.6,2349.5C2225.7,2451.6 1875,3327.2 1629.5,3327.8C1384.1,3328.3 829,3164 829,3164Z" style="fill:rgb(248,200,223);fill-rule:nonzero;"/>
            <path d="M1713.6,4146.5C1838.8,4067.6 2151.9,3840.2 2214.6,3797.3C2277.2,3754.5 2527.7,3787.1 2590.3,3755.1C2652.9,3723.1 2746.8,3546.1 2793.8,3548.5C2840.8,3550.9 3169.5,3561.7 3247.8,3548.5C3326.1,3535.3 3316.2,3424.4 3380.8,3426.2C3545.3,3430.8 3623.5,3271.1 3670.4,3262.3C3717.4,3253.5 3936.5,3255.5 3999.1,3262.3C4061.7,3269.1 4108.7,3105.9 4155.6,3171.9C4202.6,3237.8 4155.6,4146.4 4155.6,4146.4L1713.6,4146.4L1713.6,4146.5Z" style="fill:rgb(92,36,131);fill-rule:nonzero;"/>
            <path d="M3097.2,1519C3097.2,1519 3704.3,1569.4 3521.8,2181.4L3763,2239C3763,2239 3936.5,1893.6 3719.9,1580.1C3503.3,1266.6 3155.5,1274.6 3155.5,1274.6L3097.2,1519Z" style="fill:rgb(33,166,149);fill-rule:nonzero;"/>
            <path d="M-268.9,3034.9C-268.9,3034.9 811.8,3396.2 900.1,3504.9C988.4,3613.6 1391.5,4146.4 1391.5,4146.4L-268.9,4146.4L-268.9,3034.9Z" style="fill:rgb(33,166,149);fill-rule:nonzero;"/>
            <path d="M1789.8,1297.9C1200.2,1204.8 431.9,1017 406.2,913.4C380.4,809.8 686.9,360.8 743,346.9C890.1,310.3 1949.7,789.6 1949.7,789.6L2367.9,991.4C2367.9,991.4 3119.5,1300.8 2882.9,1336.1C2646.3,1371.4 2605.2,1452.9 2370.7,1414.2C2136.2,1375.4 2094.7,1346 1789.8,1297.9Z" style="fill:rgb(92,36,131);fill-rule:nonzero;"/>
            <path d="M1264.5,-89.4C1330.7,1.7 1542.6,345 1714.8,391C1887,437 2377,610 2549.2,663.5C2721.4,717 3079,1081.5 3741.2,1151.2L4363.7,1205.1L4363.7,-89.4L1264.5,-89.4Z" style="fill:rgb(104,174,225);fill-rule:nonzero;"/>
            <path d="M2607.8,3369.4C2607.8,3369.4 2372.4,2720.9 2919.1,2524.3C3465.8,2327.7 3688.5,2807.6 3688.5,2807.6L2607.8,3369.4Z" style="fill:rgb(104,174,225);fill-rule:nonzero;"/>
            <path d="M1335.7,384.9L1335.7,1080L1868.5,620.4L1335.7,384.9Z" style="fill:rgb(33,166,149);fill-rule:nonzero;"/>
            <g>
                <g transform="matrix(0.7071,-0.7071,0.7071,0.7071,-2504.27,1196.09)">
                    <circle cx="191.7" cy="3621" r="53.9" style="fill:rgb(150,201,191);"/>
                </g>
                <g transform="matrix(0.7071,-0.7071,0.7071,0.7071,-2122.93,1354.05)">
                    <circle cx="573" cy="3239.6" r="26.9" style="fill:rgb(150,201,191);"/>
                </g>
                <g transform="matrix(0.7071,-0.7071,0.7071,0.7071,-1741.58,1512)">
                    <circle cx="954.4" cy="2858.3" r="26.9" style="fill:rgb(150,201,191);"/>
                </g>
                <g transform="matrix(0.7071,-0.7071,0.7071,0.7071,-1360.24,1669.96)">
                    <circle cx="1335.7" cy="2476.9" r="18" style="fill:rgb(150,201,191);"/>
                </g>
                <g transform="matrix(0.7071,-0.7071,0.7071,0.7071,-978.889,1827.92)">
                    <circle cx="1717.1" cy="2095.6" r="9" style="fill:rgb(150,201,191);"/>
                </g>
                <g transform="matrix(0.7071,-0.7071,0.7071,0.7071,-1964.97,972.699)">
                    <circle cx="191.7" cy="2858.3" r="26.9" style="fill:rgb(150,201,191);"/>
                </g>
                <g transform="matrix(0.7071,-0.7071,0.7071,0.7071,-1583.62,1130.66)">
                    <circle cx="573" cy="2476.9" r="18" style="fill:rgb(150,201,191);"/>
                </g>
                <g transform="matrix(0.7071,-0.7071,0.7071,0.7071,-1202.28,1288.62)">
                    <circle cx="954.4" cy="2095.6" r="9" style="fill:rgb(150,201,191);"/>
                </g>
                <g transform="matrix(0.7071,-0.7071,0.7071,0.7071,-2438.85,2116.74)">
                    <circle cx="1335.7" cy="4002.3" r="53.9" style="fill:rgb(150,201,191);"/>
                </g>
                <g transform="matrix(0.7071,-0.7071,0.7071,0.7071,-2057.5,2274.7)">
                    <circle cx="1717.1" cy="3621" r="53.9" style="fill:rgb(150,201,191);"/>
                </g>
                <g transform="matrix(0.7071,-0.7071,0.7071,0.7071,-1676.15,2432.65)">
                    <circle cx="2098.4" cy="3239.6" r="26.9" style="fill:rgb(150,201,191);"/>
                </g>
                <g transform="matrix(0.7071,-0.7071,0.7071,0.7071,-1294.81,2590.61)">
                    <circle cx="2479.7" cy="2858.3" r="26.9" style="fill:rgb(150,201,191);"/>
                </g>
                <g transform="matrix(0.7071,-0.7071,0.7071,0.7071,-913.461,2748.57)">
                    <circle cx="2861.1" cy="2476.9" r="18" style="fill:rgb(150,201,191);"/>
                </g>
                <g transform="matrix(0.7071,-0.7071,0.7071,0.7071,-532.115,2906.53)">
                    <circle cx="3242.4" cy="2095.6" r="9" style="fill:rgb(150,201,191);"/>
                </g>
                <g transform="matrix(0.7071,-0.7071,0.7071,0.7071,-2662.23,1577.43)">
                    <circle cx="573" cy="4002.3" r="53.9" style="fill:rgb(150,201,191);"/>
                </g>
                <g transform="matrix(0.7071,-0.7071,0.7071,0.7071,-2280.89,1735.39)">
                    <circle cx="954.4" cy="3621" r="53.9" style="fill:rgb(150,201,191);"/>
                </g>
                <g transform="matrix(0.7071,-0.7071,0.7071,0.7071,-1899.54,1893.35)">
                    <circle cx="1335.7" cy="3239.6" r="26.9" style="fill:rgb(150,201,191);"/>
                </g>
                <g transform="matrix(0.7071,-0.7071,0.7071,0.7071,-1518.19,2051.31)">
                    <circle cx="1717.1" cy="2858.3" r="26.9" style="fill:rgb(150,201,191);"/>
                </g>
                <g transform="matrix(0.7071,-0.7071,0.7071,0.7071,-1136.85,2209.27)">
                    <circle cx="2098.4" cy="2476.9" r="18" style="fill:rgb(150,201,191);"/>
                </g>
                <g transform="matrix(0.7071,-0.7071,0.7071,0.7071,-755.502,2367.23)">
                    <circle cx="2479.7" cy="2095.6" r="9" style="fill:rgb(150,201,191);"/>
                </g>
                <g transform="matrix(0.7071,-0.7071,0.7071,0.7071,-1425.66,749.312)">
                    <circle cx="191.7" cy="2095.6" r="9" style="fill:rgb(150,201,191);"/>
                </g>
            </g>
            <path d="M2297.9,828C2087.6,762.9 1753.2,460.2 2398.5,406.2C3045.3,352.1 3691.8,337.1 3691.8,337.1C3691.8,337.1 2872.7,537.1 3461.9,1098.3C3461.9,1098.3 2805.7,985.3 2297.9,828Z" style="fill:rgb(248,200,223);fill-rule:nonzero;"/>
        </g>
    </g>
</svg>
