<?xml version="1.0" encoding="UTF-8" standalone="no"?>
<!DOCTYPE svg PUBLIC "-//W3C//DTD SVG 1.1//EN" "http://www.w3.org/Graphics/SVG/1.1/DTD/svg11.dtd">
<svg width="100%" height="100%" viewBox="0 0 577 551" version="1.1" xmlns="http://www.w3.org/2000/svg" xmlns:xlink="http://www.w3.org/1999/xlink" xml:space="preserve" xmlns:serif="http://www.serif.com/" style="fill-rule:evenodd;clip-rule:evenodd;stroke-linejoin:round;stroke-miterlimit:2;">
    <g transform="matrix(4.16667,0,0,4.16667,402.245,502.573)">
        <path d="M0,-36.227L32.139,-36.227C32.741,-36.227 33.228,-35.739 33.228,-35.137L33.228,-27.592C33.228,-26.99 32.741,-26.502 32.139,-26.502L0,-26.502C-0.602,-26.502 -1.09,-26.015 -1.09,-25.413L-1.09,10.468C-1.09,11.07 -1.577,11.557 -2.179,11.557L-15.651,11.557C-16.252,11.557 -16.74,11.07 -16.74,10.468L-16.74,-46.695C-16.74,-47.297 -16.252,-47.784 -15.651,-47.784L-2.179,-47.784C-1.577,-47.784 -1.09,-47.297 -1.09,-46.695L-1.09,-37.317C-1.09,-36.715 -0.602,-36.227 0,-36.227" style="fill:rgb(31,31,31);fill-rule:nonzero;"/>
    </g>
    <g transform="matrix(4.16667,0,0,4.16667,183.497,463.294)">
        <path d="M0,-24.854L27.776,-24.854C28.377,-24.854 28.865,-24.366 28.865,-23.764L28.865,-18.323C28.865,-17.721 28.377,-17.233 27.776,-17.233L13.089,-17.233C11.319,-17.233 9.884,-15.798 9.884,-14.028L9.884,-1.09C9.884,-0.488 9.396,0 8.794,0L-8.715,0C-9.317,0 -9.805,-0.488 -9.805,-1.09L-9.805,-16.144C-9.805,-16.745 -9.317,-17.233 -8.715,-17.233L-2.179,-17.233C-1.577,-17.233 -1.09,-17.721 -1.09,-18.323L-1.09,-23.764C-1.09,-24.366 -0.602,-24.854 0,-24.854" style="fill:rgb(31,31,31);fill-rule:nonzero;"/>
    </g>
    <g transform="matrix(4.16667,0,0,4.16667,298.43,429.997)">
        <path d="M0,20.926L-11.435,20.926C-12.037,20.926 -12.524,20.438 -12.524,19.836L-12.524,1.09C-12.524,0.488 -12.037,0 -11.435,0L0,0C0.602,0 1.09,0.488 1.09,1.09L1.09,19.836C1.09,20.438 0.602,20.926 0,20.926" style="fill:rgb(31,31,31);fill-rule:nonzero;"/>
    </g>
    <g transform="matrix(4.16667,0,0,4.16667,249.302,44.095)">
        <path d="M11.791,42.753L-3.102,42.753C-3.704,42.753 -4.192,42.265 -4.192,41.663L-4.192,32.955C-4.192,31.196 -5.618,29.77 -7.377,29.77L-17.854,29.77C-18.456,29.77 -18.943,29.282 -18.943,28.68L-18.943,18.898C-18.943,18.296 -18.456,17.809 -17.854,17.809L-5.281,17.809C-4.68,17.809 -4.192,17.321 -4.192,16.719L-4.192,1.09C-4.192,0.488 -3.704,0 -3.102,0L4.866,0C5.467,0 5.955,0.488 5.955,1.09L5.955,8.413C5.955,9.014 6.443,9.502 7.045,9.502L11.791,9.502C12.392,9.502 12.88,9.99 12.88,10.592L12.88,41.663C12.88,42.265 12.392,42.753 11.791,42.753Z" style="fill:rgb(31,31,31);fill-rule:nonzero;"/>
    </g>
    <g transform="matrix(4.16667,0,0,4.16667,4.54167,244.615)">
        <path d="M0,-9.471L14.907,-9.471C15.509,-9.471 15.997,-8.983 15.997,-8.381L15.997,-1.089C15.997,-0.487 15.509,0 14.907,0L0,0C-0.602,0 -1.09,-0.487 -1.09,-1.089L-1.09,-8.381C-1.09,-8.983 -0.602,-9.471 0,-9.471" style="fill:rgb(31,31,31);fill-rule:nonzero;"/>
    </g>
    <g transform="matrix(4.16667,0,0,4.16667,101.289,305.25)">
        <path d="M0,-9.665L0,-12.667C0,-13.269 0.488,-13.757 1.09,-13.757L15.544,-13.757C16.146,-13.757 16.634,-13.269 16.634,-12.667L16.634,-7.453C16.634,-6.852 16.146,-6.364 15.544,-6.364L12.735,-6.364C11.331,-6.364 10.194,-5.226 10.194,-3.823L10.194,3.003C10.194,3.605 9.706,4.092 9.104,4.092L-23.219,4.092C-23.821,4.092 -24.309,3.605 -24.309,3.003L-24.309,-7.486C-24.309,-8.088 -23.821,-8.575 -23.219,-8.575L-1.09,-8.575C-0.488,-8.575 0,-9.063 0,-9.665" style="fill:rgb(31,31,31);fill-rule:nonzero;"/>
    </g>
    <g transform="matrix(4.16667,0,0,4.16667,500.835,413.99)">
        <path d="M0,16.218L-12.218,16.218C-12.82,16.218 -13.308,15.73 -13.308,15.128L-13.308,1.089C-13.308,0.487 -12.82,0 -12.218,0L0,0C0.602,0 1.09,0.487 1.09,1.089L1.09,15.128C1.09,15.73 0.602,16.218 0,16.218" style="fill:rgb(31,31,31);fill-rule:nonzero;"/>
    </g>
    <g transform="matrix(4.16667,0,0,4.16667,386.134,231.246)">
        <path d="M0,-32.001L4.751,-32.001C5.353,-32.001 5.84,-31.513 5.84,-30.911L5.84,-8.592C5.84,-7.99 5.353,-7.502 4.751,-7.502L0,-7.502C-0.602,-7.502 -1.09,-7.99 -1.09,-8.592L-1.09,-30.911C-1.09,-31.513 -0.602,-32.001 0,-32.001M-12.874,-54.409L-12.874,10.505C-12.874,11.106 -12.386,11.594 -11.784,11.594L10.508,11.594C12.558,11.594 14.22,13.256 14.22,15.306L14.22,22.408C14.22,23.01 14.708,23.498 15.31,23.498L27.432,23.498C28.034,23.498 28.521,23.01 28.521,22.408L28.521,10.686C28.521,10.084 29.009,9.596 29.611,9.596L44.525,9.596C45.127,9.596 45.614,9.108 45.614,8.507L45.614,2.278C45.614,1.676 45.127,1.188 44.525,1.188L19.657,1.188C19.055,1.188 18.567,0.7 18.567,0.099L18.567,-7.218C18.567,-7.819 19.055,-8.307 19.657,-8.307L31.617,-8.307C32.219,-8.307 32.707,-8.795 32.707,-9.397L32.707,-20.161C32.707,-20.763 32.219,-21.25 31.617,-21.25L19.657,-21.25C19.055,-21.25 18.567,-21.738 18.567,-22.34L18.567,-40.082C18.567,-40.683 18.08,-41.171 17.478,-41.171L0,-41.171C-0.602,-41.171 -1.09,-41.659 -1.09,-42.261L-1.09,-54.409C-1.09,-55.011 -1.577,-55.499 -2.179,-55.499L-11.784,-55.499C-12.386,-55.499 -12.874,-55.011 -12.874,-54.409" style="fill:rgb(31,31,31);fill-rule:nonzero;"/>
    </g>
</svg>
