<?xml version="1.0" encoding="UTF-8" standalone="no"?>
<!DOCTYPE svg PUBLIC "-//W3C//DTD SVG 1.1//EN" "http://www.w3.org/Graphics/SVG/1.1/DTD/svg11.dtd">
<svg width="100%" height="100%" viewBox="0 0 1725 300" version="1.1" xmlns="http://www.w3.org/2000/svg" xmlns:xlink="http://www.w3.org/1999/xlink" xml:space="preserve" xmlns:serif="http://www.serif.com/" style="fill-rule:evenodd;clip-rule:evenodd;stroke-linejoin:round;stroke-miterlimit:2;">
    <g transform="matrix(4.16667,0,0,4.16667,0,0)">
        <path d="M44.386,9.581C44.386,14.433 40.454,18.366 35.601,18.366C30.75,18.366 26.818,14.433 26.818,9.581C26.818,4.73 30.75,0.799 35.601,0.799C40.454,0.799 44.386,4.73 44.386,9.581Z" style="fill:white;fill-rule:nonzero;"/>
        <path d="M44.386,36.377C44.386,41.226 40.454,45.154 35.601,45.154C30.75,45.154 26.818,41.226 26.818,36.377C26.818,31.527 30.75,27.591 35.601,27.591C40.454,27.591 44.386,31.527 44.386,36.377Z" style="fill:white;fill-rule:nonzero;"/>
        <path d="M17.568,36.377C17.568,41.226 13.634,45.154 8.782,45.154C3.934,45.154 0,41.226 0,36.377C0,31.527 3.934,27.591 8.782,27.591C13.634,27.591 17.568,31.527 17.568,36.377Z" style="fill:white;fill-rule:nonzero;"/>
        <path d="M71.222,36.377C71.222,41.226 67.289,45.154 62.437,45.154C57.585,45.154 53.656,41.226 53.656,36.377C53.656,31.527 57.585,27.591 62.437,27.591C67.289,27.591 71.222,31.527 71.222,36.377Z" style="fill:white;fill-rule:nonzero;"/>
        <path d="M44.386,63.224C44.386,68.069 40.454,72 35.601,72C30.75,72 26.818,68.069 26.818,63.224C26.818,58.371 30.75,54.435 35.601,54.435C40.454,54.435 44.386,58.371 44.386,63.224Z" style="fill:white;fill-rule:nonzero;"/>
        <path d="M104.592,45L104.592,37.56L95.678,37.56L95.678,45L92.366,45L92.366,27.648L95.678,27.648L95.678,34.589L104.592,34.589L104.592,27.648L107.904,27.648L107.904,45L104.592,45Z" style="fill:white;fill-rule:nonzero;"/>
        <path d="M117.498,39.558L114.369,40.583C114.185,41.056 114.133,41.293 114.133,41.608C114.133,42.397 114.605,42.871 115.395,42.871C115.789,42.871 116.262,42.739 116.683,42.502C116.893,42.397 117.051,42.292 117.498,41.95L117.498,39.558ZM121.126,45.158L120.469,45.158C118.891,45.158 118.392,44.895 117.84,43.817C116.683,44.869 115.657,45.315 114.422,45.315C112.345,45.315 110.872,43.948 110.872,42.003C110.872,41.582 110.951,41.162 111.083,40.767C111.503,39.637 112.239,39.058 114.027,38.532L117.498,37.533L117.498,36.508C117.498,35.193 117.024,34.589 115.999,34.589C115.053,34.589 114.29,35.088 114.29,35.693C114.29,35.798 114.316,35.851 114.369,36.008L111.372,36.666C111.24,36.298 111.214,36.166 111.214,35.825C111.214,33.668 113.107,32.433 116.42,32.433C119.338,32.433 120.652,33.642 120.652,36.324L120.652,41.424C120.652,42.529 120.784,42.713 121.625,42.791L121.126,45.158Z" style="fill:white;fill-rule:nonzero;"/>
        <path d="M131.457,45L131.457,42.949C129.985,44.58 128.774,45.21 127.225,45.21C125.016,45.21 123.912,44.08 123.912,41.766L123.912,32.775L127.066,32.775L127.066,40.636C127.066,42.134 127.33,42.713 128.065,42.713C128.748,42.713 129.67,42.029 131.037,40.583L131.457,40.136L131.457,32.775L134.612,32.775L134.612,45L131.457,45Z" style="fill:white;fill-rule:nonzero;"/>
        <path d="M144.759,45L140.947,38.716L140.947,45L137.818,45L137.818,25.834L140.947,25.834L140.947,38.059L144.759,32.775L148.282,32.775L143.892,38.401L148.335,45L144.759,45Z" style="fill:white;fill-rule:nonzero;"/>
        <path d="M154.644,34.799C153.25,34.799 152.304,35.746 152.04,37.402L156.825,37.402C156.746,35.535 156.115,34.799 154.644,34.799ZM158.666,44.474C157.377,45.053 156.063,45.342 154.644,45.342C151.015,45.342 148.728,42.949 148.728,39.216C148.728,35.351 151.356,32.433 154.854,32.433C157.877,32.433 159.98,34.72 159.98,38.033L159.98,39.373L151.883,39.373C151.936,40.399 152.014,40.82 152.304,41.319C152.829,42.213 153.881,42.791 155.037,42.791C155.511,42.791 155.984,42.739 156.483,42.581C157.22,42.371 157.693,42.134 158.823,41.424L159.98,43.817C159.401,44.132 158.955,44.343 158.666,44.474Z" style="fill:white;fill-rule:nonzero;"/>
        <rect x="161.687" y="25.834" width="3.128" height="19.166" style="fill:white;fill-rule:nonzero;"/>
        <path d="M173.623,39.558L170.494,40.583C170.31,41.056 170.258,41.293 170.258,41.608C170.258,42.397 170.73,42.871 171.52,42.871C171.914,42.871 172.387,42.739 172.808,42.502C173.018,42.397 173.176,42.292 173.623,41.95L173.623,39.558ZM177.251,45.158L176.594,45.158C175.016,45.158 174.517,44.895 173.965,43.817C172.808,44.869 171.782,45.315 170.547,45.315C168.47,45.315 166.997,43.948 166.997,42.003C166.997,41.582 167.076,41.162 167.208,40.767C167.628,39.637 168.364,39.058 170.152,38.532L173.623,37.533L173.623,36.508C173.623,35.193 173.149,34.589 172.124,34.589C171.178,34.589 170.415,35.088 170.415,35.693C170.415,35.798 170.441,35.851 170.494,36.008L167.497,36.666C167.365,36.298 167.339,36.166 167.339,35.825C167.339,33.668 169.232,32.433 172.545,32.433C175.463,32.433 176.777,33.642 176.777,36.324L176.777,41.424C176.777,42.529 176.909,42.713 177.75,42.791L177.251,45.158Z" style="fill:white;fill-rule:nonzero;"/>
        <path d="M187.687,45L187.687,37.139C187.687,35.614 187.424,35.062 186.661,35.062C186.004,35.062 185.084,35.719 183.717,37.191L183.296,37.639L183.296,45L180.141,45L180.141,32.775L183.296,32.775L183.296,34.799C184.769,33.195 185.978,32.538 187.529,32.538C189.737,32.538 190.842,33.695 190.842,36.008L190.842,45L187.687,45Z" style="fill:white;fill-rule:nonzero;"/>
        <path d="M201.462,37.691C201.462,37.007 201.383,36.376 201.304,36.114C201.094,35.456 200.226,34.983 199.253,34.983C197.518,34.983 196.229,36.692 196.229,39.006C196.229,41.214 197.255,42.765 198.754,42.765C199.727,42.765 200.699,42.108 201.462,40.925L201.462,37.691ZM201.462,45L201.462,43.344C201.015,44.054 200.805,44.29 200.226,44.658C199.517,45.105 198.754,45.342 197.938,45.342C195.047,45.342 192.917,42.765 192.917,39.242C192.917,35.456 195.52,32.407 198.754,32.407C199.096,32.407 199.464,32.459 199.832,32.538C200.489,32.696 200.778,32.801 201.462,33.274L201.462,25.834L204.59,25.834L204.59,45L201.462,45Z" style="fill:white;fill-rule:nonzero;"/>
        <path d="M226.172,43.896C224.884,44.947 223.28,45.499 221.414,45.499C219.547,45.499 217.917,44.947 216.629,43.896C215.183,42.713 214.604,41.319 214.604,39.058L214.604,27.648L216.76,27.648L216.76,38.401C216.76,40.557 216.918,41.162 217.759,42.081C218.627,43.055 219.889,43.58 221.388,43.58C222.886,43.58 224.147,43.055 225.016,42.081C225.856,41.162 226.015,40.557 226.015,38.401L226.015,27.648L228.17,27.648L228.17,39.058C228.17,41.372 227.618,42.713 226.172,43.896Z" style="fill:white;fill-rule:nonzero;"/>
        <path d="M240.474,45L240.474,36.56C240.474,35.772 240.421,35.509 240.289,35.167C240.105,34.773 239.632,34.536 239.08,34.536C237.87,34.536 236.582,35.43 234.505,37.717L234.505,45L232.533,45L232.533,33.09L234.505,33.09L234.505,35.588C235.32,34.667 235.557,34.431 236.136,33.958C237.029,33.195 238.212,32.775 239.316,32.775C241.42,32.775 242.445,33.852 242.445,36.087L242.445,45L240.474,45Z" style="fill:white;fill-rule:nonzero;"/>
        <path d="M246.544,45L246.544,33.09L248.516,33.09L248.516,45L246.544,45ZM247.543,30.225C246.833,30.225 246.255,29.646 246.255,28.936C246.255,28.226 246.833,27.648 247.543,27.648C248.253,27.648 248.831,28.226 248.831,28.936C248.831,29.646 248.253,30.225 247.543,30.225Z" style="fill:white;fill-rule:nonzero;"/>
        <path d="M257.191,45.342L255.377,45.342L250.908,33.09L253.063,33.09L256.35,42.739L256.402,43.212L256.428,42.765L259.663,33.09L261.818,33.09L257.191,45.342Z" style="fill:white;fill-rule:nonzero;"/>
        <path d="M268.521,34.562C266.865,34.562 265.709,35.561 265.262,37.402L271.099,37.402C271.072,35.561 270.151,34.562 268.521,34.562ZM265.104,38.874C265.104,41.766 266.576,43.528 268.995,43.528C270.047,43.528 270.81,43.238 272.098,42.345L272.886,43.896C271.125,45 270.126,45.342 268.574,45.342C265.262,45.342 263.027,42.818 263.027,39.058C263.027,35.272 265.262,32.775 268.653,32.775C271.44,32.775 273.254,34.747 273.254,37.717L273.254,38.874L265.104,38.874Z" style="fill:white;fill-rule:nonzero;"/>
        <path d="M281.798,35.246C281.403,34.904 281.192,34.773 280.956,34.773C280.22,34.773 279.273,35.851 278.143,37.901L278.143,45L276.171,45L276.171,33.09L278.143,33.09L278.143,35.246C279.615,33.353 280.352,32.775 281.245,32.775C281.692,32.775 282.244,33.064 282.771,33.59L281.798,35.246Z" style="fill:white;fill-rule:nonzero;"/>
        <path d="M288.474,45.342C287.975,45.342 287.422,45.289 286.817,45.184C285.687,44.974 285.188,44.789 284.004,44.185L284.819,42.529C285.214,42.739 285.503,42.897 285.713,43.002C286.555,43.396 287.606,43.659 288.447,43.659C289.657,43.659 290.551,43.002 290.551,42.081C290.551,41.792 290.445,41.451 290.314,41.267C289.841,40.583 289.289,40.241 287.159,39.373C284.846,38.401 284.057,37.586 284.057,36.14C284.057,34.063 285.792,32.775 288.579,32.775C289.078,32.775 289.604,32.801 290.104,32.906C290.998,33.064 291.418,33.248 292.417,33.8L291.444,35.404C290.683,34.931 290.341,34.773 289.735,34.615C289.263,34.484 288.815,34.405 288.368,34.405C287.027,34.405 286.16,35.009 286.16,35.903C286.16,36.192 286.266,36.456 286.449,36.64C286.923,37.113 287.238,37.297 289.394,38.19C291.918,39.242 292.628,40.057 292.628,41.924C292.628,44.054 291.076,45.342 288.474,45.342Z" style="fill:white;fill-rule:nonzero;"/>
        <path d="M296.149,45L296.149,33.09L298.121,33.09L298.121,45L296.149,45ZM297.148,30.225C296.438,30.225 295.86,29.646 295.86,28.936C295.86,28.226 296.438,27.648 297.148,27.648C297.858,27.648 298.437,28.226 298.437,28.936C298.437,29.646 297.858,30.225 297.148,30.225Z" style="fill:white;fill-rule:nonzero;"/>
        <path d="M304.745,45.342C303.378,45.342 302.458,44.264 302.458,42.686L302.458,34.747L300.46,34.747L300.46,33.59L302.458,33.09L302.458,29.62L304.43,29.62L304.43,33.09L307.585,33.09L307.585,34.747L304.43,34.747L304.43,41.53L304.456,42.055C304.482,42.423 304.482,42.66 304.509,42.791C304.535,43.186 304.771,43.37 305.192,43.37C305.691,43.37 306.086,43.16 306.928,42.529L307.742,43.843C306.349,45 305.691,45.342 304.745,45.342Z" style="fill:white;fill-rule:nonzero;"/>
        <path d="M313.604,45.657C313.053,47.129 312.605,48.102 311.948,49.154C311.475,49.916 311.133,50.416 310.16,51.651L308.583,50.442C309.766,49.127 310.16,48.602 310.844,47.366C311.501,46.209 311.816,45.499 312.5,43.685L308.083,33.09L310.292,33.09L313.157,40.372L313.552,41.53L313.814,40.372L316.26,33.09L318.284,33.09L313.604,45.657Z" style="fill:white;fill-rule:nonzero;"/>
        <path d="M339.71,45L339.71,37.06L329.482,37.06L329.482,45L327.326,45L327.326,27.648L329.482,27.648L329.482,35.088L339.71,35.088L339.71,27.648L341.865,27.648L341.865,45L339.71,45Z" style="fill:white;fill-rule:nonzero;"/>
        <path d="M351.433,34.536C349.329,34.536 347.699,36.534 347.699,39.058C347.699,41.582 349.329,43.58 351.433,43.58C353.51,43.58 355.14,41.582 355.14,39.058C355.14,36.534 353.51,34.536 351.433,34.536ZM351.433,45.342C348.199,45.342 345.544,42.476 345.544,39.058C345.544,35.614 348.199,32.775 351.433,32.775C354.641,32.775 357.296,35.614 357.296,39.058C357.296,42.476 354.641,45.342 351.433,45.342Z" style="fill:white;fill-rule:nonzero;"/>
        <path d="M364.13,45.342C363.631,45.342 363.078,45.289 362.474,45.184C361.343,44.974 360.844,44.789 359.66,44.185L360.476,42.529C360.87,42.739 361.159,42.897 361.369,43.002C362.211,43.396 363.263,43.659 364.104,43.659C365.313,43.659 366.207,43.002 366.207,42.081C366.207,41.792 366.102,41.451 365.971,41.267C365.497,40.583 364.945,40.241 362.815,39.373C360.502,38.401 359.713,37.586 359.713,36.14C359.713,34.063 361.448,32.775 364.235,32.775C364.734,32.775 365.261,32.801 365.76,32.906C366.654,33.064 367.074,33.248 368.073,33.8L367.101,35.404C366.339,34.931 365.997,34.773 365.392,34.615C364.919,34.484 364.472,34.405 364.024,34.405C362.684,34.405 361.816,35.009 361.816,35.903C361.816,36.192 361.922,36.456 362.105,36.64C362.579,37.113 362.895,37.297 365.05,38.19C367.574,39.242 368.284,40.057 368.284,41.924C368.284,44.054 366.732,45.342 364.13,45.342Z" style="fill:white;fill-rule:nonzero;"/>
        <path d="M377.379,34.615C376.669,34.615 375.801,34.931 375.065,35.43C374.592,35.772 374.329,36.035 373.776,36.745L373.776,40.872C373.776,41.897 373.803,42.029 374.014,42.423C374.408,43.107 375.196,43.449 376.406,43.449C378.93,43.449 380.56,41.608 380.56,38.743C380.56,36.35 379.219,34.615 377.379,34.615ZM376.616,45.315C375.354,45.315 374.539,45.079 373.776,44.5L373.776,51.284L371.805,51.284L371.805,33.09L373.776,33.09L373.776,34.589C374.775,33.432 376.195,32.748 377.694,32.748C380.639,32.748 382.689,35.193 382.689,38.716C382.689,42.555 380.14,45.315 376.616,45.315Z" style="fill:white;fill-rule:nonzero;"/>
        <path d="M385.764,45L385.764,33.09L387.735,33.09L387.735,45L385.764,45ZM386.763,30.225C386.053,30.225 385.475,29.646 385.475,28.936C385.475,28.226 386.053,27.648 386.763,27.648C387.473,27.648 388.051,28.226 388.051,28.936C388.051,29.646 387.473,30.225 386.763,30.225Z" style="fill:white;fill-rule:nonzero;"/>
        <path d="M394.36,45.342C392.993,45.342 392.073,44.264 392.073,42.686L392.073,34.747L390.075,34.747L390.075,33.59L392.073,33.09L392.073,29.62L394.045,29.62L394.045,33.09L397.2,33.09L397.2,34.747L394.045,34.747L394.045,41.53L394.071,42.055C394.098,42.423 394.098,42.66 394.124,42.791C394.15,43.186 394.387,43.37 394.808,43.37C395.307,43.37 395.701,43.16 396.543,42.529L397.357,43.843C395.964,45 395.307,45.342 394.36,45.342Z" style="fill:white;fill-rule:nonzero;"/>
        <path d="M405.691,39.558L401.222,40.714C400.933,41.267 400.88,41.53 400.88,42.003C400.88,42.949 401.511,43.554 402.483,43.554C403.377,43.554 403.982,43.265 405.691,42.029L405.691,39.558ZM408.188,45.342C406.559,45.237 405.98,44.816 405.875,43.685C405.271,44.211 405.008,44.421 404.613,44.632C403.877,45.053 402.931,45.315 402.089,45.315C400.17,45.315 398.908,44.08 398.908,42.187C398.908,40.452 399.828,39.295 401.563,38.874L405.691,37.901L405.691,35.746C405.691,34.773 404.955,34.273 403.43,34.273C402.194,34.273 401.616,34.615 401.616,35.299C401.616,35.43 401.643,35.535 401.721,35.746L399.723,36.166C399.539,35.851 399.513,35.719 399.513,35.43C399.513,33.852 401.248,32.775 403.798,32.775C406.19,32.775 407.689,33.905 407.689,35.746L407.689,43.055C407.742,43.37 408.058,43.58 408.662,43.685L408.188,45.342Z" style="fill:white;fill-rule:nonzero;"/>
        <rect x="411.842" y="25.834" width="1.971" height="19.166" style="fill:white;fill-rule:nonzero;"/>
    </g>
</svg>
