<?xml version="1.0" encoding="UTF-8" standalone="no"?>
<!DOCTYPE svg PUBLIC "-//W3C//DTD SVG 1.1//EN" "http://www.w3.org/Graphics/SVG/1.1/DTD/svg11.dtd">
<svg width="100%" height="100%" viewBox="0 0 1846 163" version="1.1" xmlns="http://www.w3.org/2000/svg" xmlns:xlink="http://www.w3.org/1999/xlink" xml:space="preserve" xmlns:serif="http://www.serif.com/" style="fill-rule:evenodd;clip-rule:evenodd;stroke-linejoin:round;stroke-miterlimit:2;">
    <g transform="matrix(4.16667,0,0,4.16667,0,0)">
        <path d="M118.549,1.487L118.549,19.524C118.549,23.843 120.149,25.923 124.108,25.923C128.106,25.923 129.707,23.883 129.707,19.524L129.707,1.487L135.626,1.487L135.626,20.164C135.626,27.283 131.507,31.122 124.148,31.122C116.709,31.122 112.59,27.283 112.59,20.164L112.59,1.487L118.549,1.487Z" style="fill:white;fill-rule:nonzero;"/>
        <path d="M140.61,9.086L146.169,9.086L146.169,11.605C147.769,9.566 149.928,8.526 152.608,8.526C157.287,8.526 159.607,10.965 159.607,15.845L159.607,30.322L153.928,30.322L153.928,17.484C153.928,14.605 153.088,13.245 150.648,13.245C148.009,13.245 146.289,14.925 146.289,17.725L146.289,30.322L140.61,30.322L140.61,9.086Z" style="fill:white;fill-rule:nonzero;"/>
        <path d="M164.197,9.086L169.876,9.086L169.876,30.322L164.197,30.322L164.197,9.086ZM164.197,1.567L169.876,1.567L169.876,6.726L164.197,6.726L164.197,1.567Z" style="fill:white;fill-rule:nonzero;"/>
        <path d="M172.233,9.086L178.512,9.086L182.872,24.323L187.271,9.086L193.27,9.086L185.671,30.322L179.872,30.322L172.233,9.086Z" style="fill:white;fill-rule:nonzero;"/>
        <path d="M208.063,17.484C207.983,14.605 206.503,13.085 203.863,13.085C201.424,13.085 199.944,14.605 199.704,17.484L208.063,17.484ZM213.662,23.883C212.502,28.323 208.862,31.042 203.823,31.042C197.784,31.042 193.825,26.723 193.825,19.564C193.825,12.605 197.625,8.326 203.743,8.326C210.222,8.326 213.942,12.405 213.942,19.724C213.942,20.204 213.942,20.684 213.902,21.204L199.704,21.204C199.864,24.523 201.344,26.243 204.104,26.243C206.023,26.243 207.263,25.523 207.983,23.883L213.662,23.883Z" style="fill:white;fill-rule:nonzero;"/>
        <path d="M217.497,9.086L222.776,9.086L222.776,12.725C224.255,9.806 226.175,8.486 228.895,8.486C229.175,8.486 229.455,8.486 229.735,8.526L229.735,14.285L227.855,14.285C224.775,14.285 223.176,15.885 223.176,19.084L223.176,30.322L217.497,30.322L217.497,9.086Z" style="fill:white;fill-rule:nonzero;"/>
        <path d="M237.095,23.403C237.175,25.563 238.615,26.603 241.534,26.603C243.814,26.603 245.014,25.803 245.014,24.483C245.014,22.643 243.174,22.764 239.415,21.804C234.416,20.524 232.056,19.004 232.056,15.405C232.056,11.125 235.335,8.326 240.774,8.326C246.494,8.326 249.853,11.005 250.053,15.565L244.534,15.565C244.454,13.765 243.134,12.725 240.814,12.725C238.655,12.725 237.615,13.365 237.615,14.685C237.615,16.164 239.375,16.325 243.414,17.285C248.333,18.444 250.733,19.804 250.733,23.643C250.733,28.442 247.293,31.042 240.774,31.042C234.855,31.042 231.416,28.203 231.416,23.643L231.416,23.403L237.095,23.403Z" style="fill:white;fill-rule:nonzero;"/>
        <path d="M254.303,9.086L259.982,9.086L259.982,30.322L254.303,30.322L254.303,9.086ZM254.303,1.567L259.982,1.567L259.982,6.726L254.303,6.726L254.303,1.567Z" style="fill:white;fill-rule:nonzero;"/>
        <path d="M271.042,30.602C266.363,30.602 265.363,29.002 265.363,24.563L265.363,13.085L262.564,13.085L262.564,9.086L265.363,9.086L265.363,3.287L271.002,3.287L271.002,9.086L274.282,9.086L274.282,13.085L271.002,13.085L271.002,24.843C271.002,25.963 271.362,26.203 272.882,26.203L274.282,26.203L274.282,30.482C272.722,30.522 271.642,30.602 271.042,30.602Z" style="fill:white;fill-rule:nonzero;"/>
        <path d="M278.958,34.242C279.478,34.322 279.958,34.322 280.279,34.322C282.518,34.322 283.638,33.282 283.638,31.162C283.638,31.002 283.598,30.762 283.518,30.562L275.879,9.086L282.118,9.086L286.597,24.403L290.957,9.086L296.916,9.086L288.197,34.122C286.958,37.721 285.438,39 281.358,39C280.758,39 279.958,38.96 278.958,38.841L278.958,34.242Z" style="fill:white;fill-rule:nonzero;"/>
        <path d="M320.637,26.283C323.796,26.283 325.596,23.923 325.596,19.684C325.596,15.445 323.796,13.125 320.637,13.125C317.477,13.125 315.638,15.445 315.638,19.684C315.638,23.923 317.477,26.283 320.637,26.283ZM320.637,8.326C327.316,8.326 331.395,12.605 331.395,19.684C331.395,26.763 327.316,31.042 320.637,31.042C313.958,31.042 309.878,26.763 309.878,19.684C309.878,12.605 313.958,8.326 320.637,8.326Z" style="fill:white;fill-rule:nonzero;"/>
        <path d="M335.765,13.085L332.725,13.085L332.725,9.086L335.765,9.086L335.765,7.126C335.765,3.127 337.765,1.367 342.124,1.367C342.963,1.367 343.843,1.407 344.843,1.487L344.843,6.006L343.364,6.006C341.804,6.006 341.284,6.246 341.284,7.606L341.284,9.086L344.843,9.086L344.843,13.085L341.324,13.085L341.324,30.322L335.765,30.322L335.765,13.085Z" style="fill:white;fill-rule:nonzero;"/>
        <path d="M372.364,25.963C377.403,25.963 380.442,22.364 380.442,15.965C380.442,9.566 377.403,5.966 372.364,5.966C367.364,5.966 364.365,9.566 364.365,15.965C364.365,22.364 367.364,25.963 372.364,25.963ZM372.364,0.807C380.961,0.807 386.441,6.686 386.441,15.965C386.441,25.243 380.961,31.122 372.364,31.122C363.765,31.122 358.326,25.243 358.326,15.965C358.326,6.686 363.765,0.807 372.364,0.807Z" style="fill:white;fill-rule:nonzero;"/>
        <path d="M394.812,23.403C394.892,25.563 396.332,26.603 399.251,26.603C401.531,26.603 402.731,25.803 402.731,24.483C402.731,22.643 400.891,22.764 397.131,21.804C392.132,20.524 389.773,19.004 389.773,15.405C389.773,11.125 393.052,8.326 398.492,8.326C404.21,8.326 407.57,11.005 407.77,15.565L402.25,15.565C402.17,13.765 400.851,12.725 398.531,12.725C396.372,12.725 395.332,13.365 395.332,14.685C395.332,16.164 397.091,16.325 401.13,17.285C406.05,18.444 408.45,19.804 408.45,23.643C408.45,28.442 405.01,31.042 398.492,31.042C392.572,31.042 389.132,28.203 389.132,23.643L389.132,23.403L394.812,23.403Z" style="fill:white;fill-rule:nonzero;"/>
        <rect x="412.06" y="1.567" width="5.679" height="28.755" style="fill:white;"/>
        <path d="M432.119,26.283C435.278,26.283 437.078,23.923 437.078,19.684C437.078,15.445 435.278,13.125 432.119,13.125C428.958,13.125 427.12,15.445 427.12,19.684C427.12,23.923 428.958,26.283 432.119,26.283ZM432.119,8.326C438.797,8.326 442.876,12.605 442.876,19.684C442.876,26.763 438.797,31.042 432.119,31.042C425.44,31.042 421.36,26.763 421.36,19.684C421.36,12.605 425.44,8.326 432.119,8.326Z" style="fill:white;fill-rule:nonzero;"/>
        <path d="M98.286,6.458C98.383,6.917 98.439,7.407 98.439,7.896C98.439,11.558 95.469,14.52 91.815,14.52C88.157,14.52 85.188,11.558 85.188,7.896C85.188,4.234 88.157,1.266 91.815,1.266C94.98,1.266 97.622,3.488 98.286,6.458Z" style="fill:white;fill-rule:nonzero;"/>
        <path d="M98.286,22.673C98.383,23.134 98.439,23.62 98.439,24.113C98.439,27.774 95.469,30.745 91.815,30.745C88.157,30.745 85.188,27.774 85.188,24.113C85.188,20.452 88.157,17.488 91.815,17.488C94.98,17.488 97.622,19.706 98.286,22.673Z" style="fill:white;fill-rule:nonzero;"/>
        <path d="M26.143,20.027C26.143,22.003 25.91,23.677 25.444,25.049C24.975,26.423 24.263,27.535 23.302,28.385C22.342,29.239 21.142,29.853 19.699,30.238C18.26,30.621 16.55,30.812 14.576,30.812C12.899,30.812 11.369,30.629 9.984,30.259C8.596,29.888 7.409,29.29 6.421,28.467C5.433,27.645 4.665,26.575 4.117,25.259C3.567,23.938 3.292,22.318 3.292,20.399L3.292,3.354L0,2.737L0,1.499L10.209,1.499L10.209,2.737L6.916,3.354L6.916,21.756C6.916,24.034 7.629,25.826 9.056,27.131C10.484,28.433 12.583,29.085 15.356,29.085C18.266,29.085 20.371,28.411 21.675,27.065C22.979,25.723 23.631,23.597 23.631,20.687L23.631,3.354L20.338,2.737L20.338,1.499L29.436,1.499L29.436,2.737L26.143,3.354L26.143,20.027Z" style="fill:white;fill-rule:nonzero;"/>
        <path d="M38.549,12.615L38.549,28.467L41.842,29.085L41.842,30.321L32.085,30.321L32.085,29.085L35.378,28.467L35.378,12.205L32.085,10.97L32.085,10.27L38.549,9.24L38.713,9.325L38.549,12.615Z" style="fill:white;fill-rule:nonzero;"/>
        <path d="M66.197,5.988C64.549,3.82 62.23,2.737 59.239,2.737C56.191,2.737 53.847,3.785 52.198,5.883C50.55,7.986 49.729,11.285 49.729,15.787C49.729,20.342 50.537,23.7 52.157,25.852C53.777,28.008 56.108,29.085 59.157,29.085C62.204,29.085 64.549,28.031 66.197,25.914C67.843,23.801 68.667,20.508 68.667,16.034C68.667,11.504 67.843,8.156 66.197,5.988ZM69.161,26.988C66.772,29.538 63.383,30.812 58.992,30.812C54.793,30.812 51.517,29.573 49.171,27.088C46.825,24.605 45.652,20.961 45.652,16.158C45.652,13.66 45.973,11.463 46.62,9.57C47.264,7.676 48.176,6.097 49.358,4.834C50.537,3.57 51.972,2.62 53.66,1.975C55.348,1.33 57.235,1.005 59.32,1.005C61.408,1.005 63.279,1.323 64.94,1.952C66.6,2.584 68.008,3.523 69.161,4.774C70.312,6.024 71.199,7.566 71.817,9.405C72.434,11.245 72.742,13.373 72.742,15.787C72.742,20.699 71.549,24.435 69.161,26.988Z" style="fill:white;fill-rule:nonzero;"/>
        <path d="M34.944,3.184C34.944,3.786 35.143,4.288 35.541,4.685C35.938,5.083 36.44,5.282 37.043,5.282C37.647,5.282 38.156,5.083 38.567,4.685C38.979,4.288 39.185,3.786 39.185,3.184C39.185,2.581 38.979,2.071 38.567,1.659C38.156,1.245 37.647,1.042 37.043,1.042C36.44,1.042 35.938,1.245 35.541,1.659C35.143,2.071 34.944,2.581 34.944,3.184Z" style="fill:white;fill-rule:nonzero;"/>
    </g>
</svg>
