<?xml version="1.0" encoding="UTF-8" standalone="no"?>
<!DOCTYPE svg PUBLIC "-//W3C//DTD SVG 1.1//EN" "http://www.w3.org/Graphics/SVG/1.1/DTD/svg11.dtd">
<svg width="100%" height="100%" viewBox="0 0 4000 4000" version="1.1" xmlns="http://www.w3.org/2000/svg" xmlns:xlink="http://www.w3.org/1999/xlink" xml:space="preserve" xmlns:serif="http://www.serif.com/" style="fill-rule:evenodd;clip-rule:evenodd;stroke-linejoin:round;stroke-miterlimit:2;">
    <g>
        <rect x="0" y="0" width="4000" height="4000" style="fill:rgb(248,200,223);"/>
        <path d="M3730,4168C3730,4168 3637.9,2776.7 2061,2864C435,2954 105,2120 -54,434C-197.2,-1084.2 -201,4311 -201,4311L3730,4168Z" style="fill:rgb(104,174,225);fill-rule:nonzero;"/>
        <g>
            <g transform="matrix(0.9901,-0.1404,0.1404,0.9901,-88.5145,51.295)">
                <circle cx="319.2" cy="652.9" r="52.3" style="fill:rgb(152,116,178);"/>
            </g>
            <g transform="matrix(0.996,-0.0890804,0.0890804,0.996,-41.696,25.7734)">
                <circle cx="267.9" cy="480" r="52.3" style="fill:rgb(152,116,178);"/>
            </g>
            <g transform="matrix(0.4124,-0.911,0.911,0.4124,-477.065,485.703)">
                <circle cx="138" cy="612.7" r="52.3" style="fill:rgb(152,116,178);"/>
            </g>
            <g transform="matrix(0.5887,-0.8083,0.8083,0.5887,-353.397,250.047)">
                <circle cx="69" cy="472.3" r="26.1" style="fill:rgb(152,116,178);"/>
            </g>
            <g transform="matrix(0.4788,-0.8779,0.8779,0.4788,-641.745,497.492)">
                <circle cx="98.1" cy="789.2" r="52.3" style="fill:rgb(152,116,178);"/>
            </g>
            <g transform="matrix(0.7071,-0.7071,0.7071,0.7071,-633.856,204.267)">
                <circle cx="-70.4" cy="867.3" r="52.3" style="fill:rgb(152,116,178);"/>
            </g>
            <g transform="matrix(0.6351,-0.7725,0.7725,0.6351,-528.884,186.161)">
                <circle cx="-67.4" cy="652.8" r="52.3" style="fill:rgb(152,116,178);"/>
            </g>
            <g transform="matrix(0.8348,-0.5506,0.5506,0.8348,19.2769,141.845)">
                <circle cx="246" cy="38.8" r="52.3" style="fill:rgb(152,116,178);"/>
            </g>
            <g transform="matrix(0.7794,-0.6265,0.6265,0.7794,-89.4563,176.64)">
                <circle cx="206.1" cy="215.4" r="52.3" style="fill:rgb(152,116,178);"/>
            </g>
            <g transform="matrix(0.8093,-0.5874,0.5874,0.8093,-161,105.178)">
                <circle cx="81.5" cy="300.5" r="52.3" style="fill:rgb(152,116,178);"/>
            </g>
            <g transform="matrix(0.1694,-0.9855,0.9855,0.1694,-125.252,77.8147)">
                <circle cx="-16.5" cy="113.2" r="52.3" style="fill:rgb(152,116,178);"/>
            </g>
            <g transform="matrix(0.9901,-0.1404,0.1404,0.9901,-255.681,113.671)">
                <circle cx="677.7" cy="1868.7" r="52.3" style="fill:rgb(152,116,178);"/>
            </g>
            <g transform="matrix(0.9901,-0.1404,0.1404,0.9901,-227.58,95.2158)">
                <circle cx="561" cy="1660.4" r="52.3" style="fill:rgb(152,116,178);"/>
            </g>
            <g transform="matrix(0.4198,-0.9076,0.9076,0.4198,-1377.25,1431.42)">
                <circle cx="431" cy="1793" r="52.3" style="fill:rgb(152,116,178);"/>
            </g>
            <g transform="matrix(0.9888,-0.1491,0.1491,0.9888,-242.35,72.4543)">
                <circle cx="362.1" cy="1652.6" r="26.1" style="fill:rgb(152,116,178);"/>
            </g>
            <g transform="matrix(0.5025,-0.8646,0.8646,0.5025,-1670.33,1396.22)">
                <circle cx="378" cy="2149.4" r="52.3" style="fill:rgb(152,116,178);"/>
            </g>
            <g transform="matrix(0.9727,-0.2319,0.2319,0.9727,-445.998,144.368)">
                <circle cx="391.2" cy="1969.5" r="40.6" style="fill:rgb(152,116,178);"/>
            </g>
            <g transform="matrix(0.7071,-0.7071,0.7071,0.7071,-1392.51,734.227)">
                <circle cx="190" cy="2048" r="52.3" style="fill:rgb(152,116,178);"/>
            </g>
            <g transform="matrix(0.9981,-0.061977,0.061977,0.9981,-113.18,17.5084)">
                <circle cx="225.6" cy="1833.2" r="52.3" style="fill:rgb(152,116,178);"/>
            </g>
            <g transform="matrix(0.7954,-0.6061,0.6061,0.7954,-974.943,448.43)">
                <circle cx="176.7" cy="1668.2" r="36.1" style="fill:rgb(152,116,178);"/>
            </g>
            <g transform="matrix(0.887,-0.4618,0.4618,0.887,-671.081,247.788)">
                <circle cx="170.7" cy="1495" r="52.3" style="fill:rgb(152,116,178);"/>
            </g>
            <g transform="matrix(0.8267,-0.5626,0.5626,0.8267,-916.728,279.539)">
                <circle cx="-4.6" cy="1627.9" r="52.3" style="fill:rgb(152,116,178);"/>
            </g>
            <g transform="matrix(0.9262,-0.3771,0.3771,0.9262,-552.853,86.3461)">
                <circle cx="-55.9" cy="1455.1" r="45.1" style="fill:rgb(152,116,178);"/>
            </g>
            <g transform="matrix(0.8267,-0.5626,0.5626,0.8267,-592.509,514.545)">
                <circle cx="539" cy="1219.1" r="52.3" style="fill:rgb(152,116,178);"/>
            </g>
            <g transform="matrix(0.7643,-0.6449,0.6449,0.7643,-584.89,557.47)">
                <circle cx="470.1" cy="1078.8" r="26.1" style="fill:rgb(152,116,178);"/>
            </g>
            <g transform="matrix(0.8334,-0.5527,0.5527,0.8334,-688.239,508.463)">
                <circle cx="499.2" cy="1395.7" r="52.3" style="fill:rgb(152,116,178);"/>
            </g>
            <g transform="matrix(0.8683,-0.4961,0.4961,0.8683,-685.319,380.889)">
                <circle cx="374.5" cy="1480.9" r="52.3" style="fill:rgb(152,116,178);"/>
            </g>
            <g transform="matrix(0.9992,-0.0388637,0.0388637,0.9992,-50.258,10.5788)">
                <circle cx="247" cy="1298" r="49.6" style="fill:rgb(152,116,178);"/>
            </g>
            <g transform="matrix(0.1783,-0.984,0.984,0.1783,-818.654,1197.46)">
                <circle cx="307.7" cy="1088.9" r="49.6" style="fill:rgb(152,116,178);"/>
            </g>
            <g transform="matrix(0.996,-0.0890804,0.0890804,0.996,-76.5221,25.0087)">
                <circle cx="241.9" cy="869.8" r="49.6" style="fill:rgb(152,116,178);"/>
            </g>
            <g transform="matrix(0.1992,-0.98,0.98,0.1992,-1046.95,928.334)">
                <circle cx="44.6" cy="1104.8" r="52.3" style="fill:rgb(152,116,178);"/>
            </g>
            <g transform="matrix(0.9461,-0.3238,0.3238,0.9461,-419.061,88.2332)">
                <circle cx="55.7" cy="1303.6" r="58.6" style="fill:rgb(152,116,178);"/>
            </g>
        </g>
        <path d="M42,-208C42,-208 721,230 667,846C618.5,1399.6 1100.6,2188.3 2230,1810C3427,1409 4016,2497 4168,3364L4891,3097L4829,-904L0,-752L42,-208Z" style="fill:rgb(56,64,68);fill-rule:nonzero;"/>
        <path d="M4070,1982C4070,1982 3721.9,1783 3748,1481C3775,1169 3651,830 3213,821C2775,812 2042,999 1703,151C1364,-697 614,-394 614,-394L614,-644L4445,-644L4445,1982L4070,1982Z" style="fill:rgb(152,116,178);fill-rule:nonzero;"/>
        <path d="M1159,3682.6C1159,3682.6 1797.7,3309.9 1692.5,3566.1C1595.6,3802.1 1656.6,3825.2 1977.2,3646.7C2297.8,3468.2 2467.2,3297 2089.8,3728.2C1900.4,3944.6 2231.2,3747.8 2378.2,3665.1C2518.1,3586.5 2575,3586.5 2452.5,3787.4C2330,3988.3 2651.8,3747.6 2640.7,3850.5C2629.6,3953.4 2320.1,4395 2320.1,4395L1358.3,4525L1159,3682.6Z" style="fill:rgb(56,64,68);fill-rule:nonzero;"/>
        <path d="M-74,525C-74,525 435,757 310,1400C185,2043 59,2298 533,2764C1007,3230 1391,3045 1480,4263L-261,4263L-74,525Z" style="fill:rgb(188,214,242);fill-rule:nonzero;"/>
        <circle cx="3453.5" cy="2060.5" r="276.5" style="fill:rgb(152,116,178);"/>
        <path d="M926.4,3096.9C802.9,3282.9 637,3197 530,3241C423,3285 462,3554 230,3462C208.1,3453.3 187.6,3448.2 168.5,3446.1L203.3,3177.1C203.3,3177.1 -278.7,3168.1 -537.7,3223.1C-796.7,3278.1 -742.7,3490.1 -760.7,3693.1C-778.7,3896.1 -867.7,3971.1 -1024.7,4075.1C-1179.5,4177.7 -992.7,4383.1 -850.1,4168.2C-726.6,3982.2 -560.7,4068.1 -453.7,4024.1C-346.7,3980.1 -385.7,3711.1 -153.7,3803.1C-131.8,3811.8 -111.3,3816.9 -92.2,3819L-127,4088C-127,4088 355,4097 614,4042C873,3987 819,3775 837,3572C855,3369 944,3294 1101,3190C1255.8,3087.4 1069,2882 926.4,3096.9Z" style="fill:rgb(152,116,178);fill-rule:nonzero;"/>
        <g>
            <circle cx="88.6" cy="4023.9" r="26.8" style="fill:white;"/>
            <circle cx="120.1" cy="3933.8" r="16.2" style="fill:white;"/>
            <g transform="matrix(0.4806,-0.8769,0.8769,0.4806,-3490.23,2035.12)">
                <circle cx="-27.1" cy="3964" r="30.1" style="fill:white;"/>
            </g>
            <g transform="matrix(0.9901,-0.1404,0.1404,0.9901,-480.231,53.7539)">
                <circle cx="140.8" cy="3430" r="26.8" style="fill:white;"/>
            </g>
            <g transform="matrix(0.996,-0.0890804,0.0890804,0.996,-307.686,18.3877)">
                <circle cx="52.2" cy="3456.4" r="26.8" style="fill:white;"/>
            </g>
            <g transform="matrix(0.4124,-0.911,0.911,0.4124,-3138.81,2179.54)">
                <circle cx="120.2" cy="3523" r="26.8" style="fill:white;"/>
            </g>
            <g transform="matrix(0.5887,-0.8083,0.8083,0.5887,-2856.53,1502.46)">
                <circle cx="48.2" cy="3558.3" r="13.4" style="fill:white;"/>
            </g>
            <g transform="matrix(0.4788,-0.8779,0.8779,0.4788,-3001.05,2031.85)">
                <circle cx="210.7" cy="3543.4" r="26.8" style="fill:white;"/>
            </g>
            <g transform="matrix(0.7071,-0.7071,0.7071,0.7071,-2493.23,1240.44)">
                <circle cx="250.7" cy="3629.8" r="26.8" style="fill:white;"/>
            </g>
            <g transform="matrix(0.6351,-0.7725,0.7725,0.6351,-2751.31,1432.8)">
                <circle cx="140.8" cy="3628.3" r="26.8" style="fill:white;"/>
            </g>
            <g transform="matrix(0.9804,-0.1968,0.1968,0.9804,-717.93,82.5115)">
                <circle cx="56.2" cy="3653.4" r="18.5" style="fill:white;"/>
            </g>
            <g transform="matrix(0.8267,-0.5626,0.5626,0.8267,-2062.89,615.29)">
                <circle cx="-32.6" cy="3656.5" r="26.8" style="fill:white;"/>
            </g>
            <g transform="matrix(0.5725,-0.8199,0.8199,0.5725,-3038.84,1648.31)">
                <circle cx="61.3" cy="3738.3" r="26.8" style="fill:white;"/>
            </g>
            <g transform="matrix(0.5981,-0.8014,0.8014,0.5981,-3071.52,1575.5)">
                <circle cx="35" cy="3850" r="26.8" style="fill:white;"/>
            </g>
            <circle cx="224.1" cy="4023.9" r="26.8" style="fill:white;"/>
            <circle cx="329.1" cy="4010" r="26.8" style="fill:white;"/>
            <circle cx="282.8" cy="3926.8" r="26.8" style="fill:white;"/>
            <circle cx="361.9" cy="3913.4" r="13.4" style="fill:white;"/>
            <g transform="matrix(0.8151,-0.5793,0.5793,0.8151,-2206.34,779.573)">
                <circle cx="118.2" cy="3846.4" r="26.8" style="fill:white;"/>
            </g>
            <g transform="matrix(0.0415595,-0.9991,0.9991,0.0415595,-3684.62,3921.83)">
                <circle cx="201.9" cy="3881.5" r="26.8" style="fill:white;"/>
            </g>
            <g transform="matrix(0.2311,-0.9729,0.9729,0.2311,-3513.28,3073.74)">
                <circle cx="188" cy="3759.6" r="26.8" style="fill:white;"/>
            </g>
            <g transform="matrix(0.7071,-0.7071,0.7071,0.7071,-2615.3,1326.09)">
                <circle cx="293.1" cy="3820" r="20.8" style="fill:white;"/>
            </g>
            <circle cx="381.3" cy="3820" r="26.8" style="fill:white;"/>
            <circle cx="473.8" cy="3820" r="26.8" style="fill:white;"/>
            <circle cx="427.6" cy="3736.8" r="26.8" style="fill:white;"/>
            <circle cx="520" cy="3736.8" r="23.1" style="fill:white;"/>
            <g transform="matrix(0.4442,-0.8959,0.8959,0.4442,-3147.76,2339.49)">
                <circle cx="311.8" cy="3706.9" r="26.8" style="fill:white;"/>
            </g>
            <g transform="matrix(0.5789,-0.8154,0.8154,0.5789,-2786.21,1882.33)">
                <circle cx="429.2" cy="3638.5" r="18.2" style="fill:white;"/>
            </g>
            <g transform="matrix(0.7975,-0.6033,0.6033,0.7975,-2329.37,1096.04)">
                <circle cx="468.2" cy="4018.3" r="26.8" style="fill:white;"/>
            </g>
            <g transform="matrix(0.2311,-0.9729,0.9729,0.2311,-3496.05,3465.59)">
                <circle cx="444.5" cy="3944.6" r="26.8" style="fill:white;"/>
            </g>
            <g transform="matrix(0.9986,-0.0532758,0.0532758,0.9986,-208.262,34.9216)">
                <circle cx="550.9" cy="3923.8" r="26.8" style="fill:white;"/>
            </g>
            <circle cx="647.6" cy="3956.9" r="26.8" style="fill:white;"/>
            <circle cx="740.1" cy="3956.9" r="26.8" style="fill:white;"/>
            <circle cx="693.9" cy="3873.6" r="26.8" style="fill:white;"/>
            <circle cx="786.4" cy="3873.6" r="26.8" style="fill:white;"/>
            <g transform="matrix(0.4806,-0.8769,0.8769,0.4806,-3044.1,2487.83)">
                <circle cx="578.2" cy="3813.7" r="30.1" style="fill:white;"/>
            </g>
            <g transform="matrix(0.9901,-0.1404,0.1404,0.9901,-448.246,139.473)">
                <circle cx="764.3" cy="3246.2" r="26.8" style="fill:white;"/>
            </g>
            <g transform="matrix(0.9901,-0.1404,0.1404,0.9901,-457.709,125.063)">
                <circle cx="657.4" cy="3306.1" r="26.8" style="fill:white;"/>
            </g>
            <g transform="matrix(0.4198,-0.9076,0.9076,0.4198,-2640.2,2615.07)">
                <circle cx="725.4" cy="3372.7" r="26.8" style="fill:white;"/>
            </g>
            <g transform="matrix(0.9888,-0.1491,0.1491,0.9888,-500.818,135.517)">
                <circle cx="653.4" cy="3408.1" r="13.4" style="fill:white;"/>
            </g>
            <g transform="matrix(0.5025,-0.8646,0.8646,0.5025,-2487.73,2476.85)">
                <circle cx="908.2" cy="3399.9" r="26.8" style="fill:white;"/>
            </g>
            <g transform="matrix(0.9727,-0.2319,0.2319,0.9727,-764.498,281.652)">
                <circle cx="816" cy="3393.2" r="20.8" style="fill:white;"/>
            </g>
            <g transform="matrix(0.7071,-0.7071,0.7071,0.7071,-2221.48,1629.46)">
                <circle cx="856.2" cy="3496.3" r="26.8" style="fill:white;"/>
            </g>
            <g transform="matrix(0.9981,-0.061977,0.061977,0.9981,-214.124,52.9222)">
                <circle cx="746" cy="3478" r="26.8" style="fill:white;"/>
            </g>
            <g transform="matrix(0.7954,-0.6061,0.6061,0.7954,-1987.94,1117.7)">
                <circle cx="661.4" cy="3503.1" r="18.5" style="fill:white;"/>
            </g>
            <g transform="matrix(0.887,-0.4618,0.4618,0.887,-1554.39,660.654)">
                <circle cx="572.6" cy="3506.2" r="26.8" style="fill:white;"/>
            </g>
            <g transform="matrix(0.8267,-0.5626,0.5626,0.8267,-1912.23,983.705)">
                <circle cx="640.8" cy="3596.1" r="26.8" style="fill:white;"/>
            </g>
            <g transform="matrix(0.9262,-0.3771,0.3771,0.9262,-1325.29,475.671)">
                <circle cx="552.1" cy="3622.4" r="23.1" style="fill:white;"/>
            </g>
            <g transform="matrix(0.5981,-0.8014,0.8014,0.5981,-2707.82,2000.17)">
                <circle cx="640.2" cy="3699.7" r="26.8" style="fill:white;"/>
            </g>
            <g transform="matrix(0.8267,-0.5626,0.5626,0.8267,-1791.72,817.452)">
                <circle cx="431.2" cy="3317.3" r="26.8" style="fill:white;"/>
            </g>
            <g transform="matrix(0.7643,-0.6449,0.6449,0.7643,-2077.52,1022.02)">
                <circle cx="359.2" cy="3352.7" r="13.4" style="fill:white;"/>
            </g>
            <g transform="matrix(0.8334,-0.5527,0.5527,0.8334,-1757.92,844.524)">
                <circle cx="521.7" cy="3337.8" r="26.8" style="fill:white;"/>
            </g>
            <g transform="matrix(0.8683,-0.4961,0.4961,0.8683,-1613.11,728.606)">
                <circle cx="565.4" cy="3401.7" r="26.8" style="fill:white;"/>
            </g>
            <g transform="matrix(0.9992,-0.0388637,0.0388637,0.9992,-133.799,20.8471)">
                <circle cx="469.3" cy="3451.9" r="26.8" style="fill:white;"/>
            </g>
            <g transform="matrix(0.1783,-0.984,0.984,0.1783,-3090.82,3194.26)">
                <circle cx="367.2" cy="3447.8" r="26.8" style="fill:white;"/>
            </g>
            <g transform="matrix(0.996,-0.0890803,0.0890803,0.996,-308.365,38.6208)">
                <circle cx="278.5" cy="3474.1" r="26.8" style="fill:white;"/>
            </g>
            <g transform="matrix(0.1992,-0.98,0.98,0.1992,-3200.99,3224.48)">
                <circle cx="372.5" cy="3570.9" r="26.8" style="fill:white;"/>
            </g>
            <g transform="matrix(0.4198,-0.9076,0.9076,0.4198,-2856.79,2800.23)">
                <circle cx="762" cy="3634.7" r="26.8" style="fill:white;"/>
            </g>
            <g transform="matrix(0.9461,-0.3238,0.3238,0.9461,-1128.68,345.634)">
                <circle cx="474.5" cy="3565.2" r="30.1" style="fill:white;"/>
            </g>
        </g>
    </g>
</svg>
