<?xml version="1.0" encoding="UTF-8" standalone="no"?>
<!DOCTYPE svg PUBLIC "-//W3C//DTD SVG 1.1//EN" "http://www.w3.org/Graphics/SVG/1.1/DTD/svg11.dtd">
<svg width="100%" height="100%" viewBox="0 0 2163 551" version="1.1" xmlns="http://www.w3.org/2000/svg" xmlns:xlink="http://www.w3.org/1999/xlink" xml:space="preserve" xmlns:serif="http://www.serif.com/" style="fill-rule:evenodd;clip-rule:evenodd;stroke-linejoin:round;stroke-miterlimit:2;">
    <g id="Layer-1" serif:id="Layer 1" transform="matrix(4.16667,0,0,4.16667,-1057.87,-1203.08)">
        <g transform="matrix(1,0,0,1,476.278,392.863)">
            <path d="M0,-48.472C0.401,-48.472 0.726,-48.147 0.726,-47.746L0.726,-5.386C0.726,-3.904 0.276,-2.636 -0.621,-1.582C-1.518,-0.528 -2.574,0 -3.786,0C-6.882,0 -9.418,-1.794 -11.392,-5.386L-26.615,-29.211C-27.006,-29.823 -27.953,-29.546 -27.953,-28.82L-27.953,-1.264C-27.953,-0.864 -28.278,-0.538 -28.679,-0.538L-36.586,-0.538C-36.987,-0.538 -37.312,-0.864 -37.312,-1.264L-37.312,-47.746C-37.312,-48.147 -36.987,-48.472 -36.586,-48.472L-28.692,-48.472C-28.442,-48.472 -28.21,-48.343 -28.077,-48.131L-9.974,-19.24C-9.587,-18.622 -8.633,-18.897 -8.633,-19.626L-8.633,-47.746C-8.633,-48.147 -8.308,-48.472 -7.907,-48.472L0,-48.472Z" style="fill:rgb(76,76,78);fill-rule:nonzero;"/>
        </g>
        <g transform="matrix(1,0,0,1,517.866,367.145)">
            <path d="M0,2.425L0,-0.066C0,-4.375 -0.537,-7.809 -1.616,-10.366C-2.871,-13.328 -5.565,-14.81 -9.694,-14.81C-13.867,-14.81 -16.584,-13.328 -17.84,-10.366C-18.872,-7.943 -19.389,-4.509 -19.389,-0.066L-19.389,2.425C-19.389,8.214 -18.581,12.119 -16.965,14.139C-16.336,14.992 -15.405,15.72 -14.17,16.326C-12.937,16.932 -11.455,17.235 -9.727,17.235C-8,17.235 -6.53,16.944 -5.318,16.361C-4.106,15.778 -3.163,15.059 -2.49,14.206C-1.818,13.354 -1.301,12.232 -0.941,10.84C-0.314,8.641 0,5.836 0,2.425M9.359,-1.008L9.359,2.627C9.359,10.661 7.844,16.495 4.815,20.13C1.785,23.766 -3.073,25.583 -9.761,25.583C-16.449,25.583 -21.284,23.766 -24.268,20.13C-27.254,16.495 -28.746,10.594 -28.746,2.425L-28.746,-1.076C-28.746,-8.526 -27.231,-14.069 -24.202,-17.705C-21.172,-21.34 -16.371,-23.158 -9.795,-23.158C-3.22,-23.158 1.616,-21.316 4.714,-17.637C7.81,-13.957 9.359,-8.414 9.359,-1.008" style="fill:rgb(76,76,78);fill-rule:nonzero;"/>
        </g>
        <g transform="matrix(1,0,0,1,562.877,372.026)">
            <path d="M0,-7.338C1.28,-8.706 1.919,-10.411 1.919,-12.454C1.919,-14.496 1.301,-16.145 0.069,-17.402C-1.166,-18.659 -2.816,-19.287 -4.88,-19.287L-9.525,-19.287C-12.308,-19.287 -13.699,-17.874 -13.699,-15.046L-13.699,-6.01C-13.699,-5.609 -13.374,-5.284 -12.973,-5.284L-4.88,-5.284C-2.906,-5.284 -1.278,-5.968 0,-7.338M11.997,20.298L2.829,20.298C2.56,20.298 2.313,20.149 2.187,19.91L-6.764,2.913C-6.889,2.674 -7.136,2.525 -7.406,2.525L-12.973,2.525C-13.374,2.525 -13.699,2.85 -13.699,3.251L-13.699,19.572C-13.699,19.973 -14.024,20.298 -14.425,20.298L-22.331,20.298C-22.731,20.298 -23.056,19.973 -23.056,19.572L-23.056,-17.335C-23.056,-20.925 -22.228,-23.539 -20.566,-25.178C-18.907,-26.816 -16.123,-27.636 -12.219,-27.636L-4.274,-27.636C0.482,-27.636 4.264,-26.187 7.069,-23.293C9.873,-20.398 11.278,-16.729 11.278,-12.286C11.278,-9.055 10.436,-6.261 8.753,-3.905C7.237,-1.783 5.405,-0.253 3.254,0.686C2.866,0.855 2.722,1.333 2.927,1.703L12.632,19.22C12.9,19.704 12.55,20.298 11.997,20.298" style="fill:rgb(76,76,78);fill-rule:nonzero;"/>
        </g>
        <g transform="matrix(1,0,0,1,623.639,369.777)">
            <path d="M0,-2.838C0,-3.612 -1.05,-3.849 -1.382,-3.149L-8.618,12.113C-9.873,14.537 -11.434,15.748 -13.295,15.748C-15.159,15.748 -16.719,14.469 -17.975,11.911L-25.347,-3.232C-25.685,-3.925 -26.726,-3.684 -26.726,-2.914L-26.726,21.822C-26.726,22.223 -27.051,22.548 -27.452,22.548L-35.359,22.548C-35.76,22.548 -36.085,22.223 -36.085,21.822L-36.085,-24.66C-36.085,-25.061 -35.76,-25.386 -35.359,-25.386L-27.315,-25.386C-27.037,-25.386 -26.784,-25.228 -26.662,-24.979L-13.983,0.947C-13.718,1.49 -12.943,1.489 -12.679,0.945L-0.063,-24.978C0.058,-25.227 0.312,-25.386 0.589,-25.386L8.631,-25.386C9.032,-25.386 9.357,-25.061 9.357,-24.66L9.357,21.822C9.357,22.223 9.032,22.548 8.631,22.548L0.726,22.548C0.325,22.548 0,22.223 0,21.822L0,-2.838Z" style="fill:rgb(76,76,78);fill-rule:nonzero;"/>
        </g>
        <g transform="matrix(1,0,0,1,676.769,345.116)">
            <path d="M0,46.482C0,46.883 -0.325,47.208 -0.726,47.208L-14.954,47.208C-20.341,47.208 -24.121,46.277 -26.299,44.414C-28.475,42.552 -29.563,39.264 -29.563,34.552L-29.563,0C-29.563,-0.4 -29.238,-0.726 -28.837,-0.726L-0.726,-0.726C-0.325,-0.726 0,-0.4 0,0L0,6.897C0,7.298 -0.325,7.623 -0.726,7.623L-19.48,7.623C-19.881,7.623 -20.206,7.948 -20.206,8.349L-20.206,18.139C-20.206,18.54 -19.881,18.865 -19.48,18.865L-1.731,18.865C-1.33,18.865 -1.005,19.19 -1.005,19.591L-1.005,26.487C-1.005,26.888 -1.33,27.213 -1.731,27.213L-19.48,27.213C-19.881,27.213 -20.206,27.538 -20.206,27.939L-20.206,33.878C-20.206,35.764 -19.779,37.066 -18.927,37.783C-18.073,38.502 -16.526,38.86 -14.282,38.86L-0.726,38.86C-0.325,38.86 0,39.185 0,39.586L0,46.482Z" style="fill:rgb(76,76,78);fill-rule:nonzero;"/>
        </g>
        <g transform="matrix(1,0,0,1,727.948,392.863)">
            <path d="M0,-48.472C0.401,-48.472 0.726,-48.147 0.726,-47.746L0.726,-5.386C0.726,-3.904 0.276,-2.636 -0.621,-1.582C-1.519,-0.528 -2.574,0 -3.786,0C-6.882,0 -9.418,-1.794 -11.392,-5.386L-26.615,-29.211C-27.006,-29.823 -27.953,-29.546 -27.953,-28.82L-27.953,-1.264C-27.953,-0.864 -28.278,-0.538 -28.679,-0.538L-36.586,-0.538C-36.987,-0.538 -37.312,-0.864 -37.312,-1.264L-37.312,-47.746C-37.312,-48.147 -36.987,-48.472 -36.586,-48.472L-28.692,-48.472C-28.442,-48.472 -28.21,-48.343 -28.077,-48.131L-9.974,-19.24C-9.587,-18.622 -8.633,-18.897 -8.633,-19.626L-8.633,-47.746C-8.633,-48.147 -8.308,-48.472 -7.907,-48.472L0,-48.472Z" style="fill:rgb(76,76,78);fill-rule:nonzero;"/>
        </g>
        <g transform="matrix(1,0,0,1,772.186,383.976)">
            <path d="M0,-31.237L-11.407,-31.237C-11.808,-31.237 -12.133,-30.912 -12.133,-30.511L-12.133,7.622C-12.133,8.023 -12.458,8.348 -12.859,8.348L-20.764,8.348C-21.165,8.348 -21.49,8.023 -21.49,7.622L-21.49,-30.511C-21.49,-30.912 -21.815,-31.237 -22.216,-31.237L-33.555,-31.237C-33.956,-31.237 -34.281,-31.562 -34.281,-31.963L-34.281,-38.859C-34.281,-39.26 -33.956,-39.585 -33.555,-39.585L0,-39.585C0.401,-39.585 0.726,-39.26 0.726,-38.859L0.726,-31.963C0.726,-31.562 0.401,-31.237 0,-31.237" style="fill:rgb(76,76,78);fill-rule:nonzero;"/>
        </g>
        <g transform="matrix(1,0,0,1,350.428,409.356)">
            <path d="M0,-36.227L32.139,-36.227C32.741,-36.227 33.228,-35.739 33.228,-35.137L33.228,-27.592C33.228,-26.99 32.741,-26.502 32.139,-26.502L0,-26.502C-0.602,-26.502 -1.09,-26.015 -1.09,-25.413L-1.09,10.468C-1.09,11.07 -1.577,11.557 -2.179,11.557L-15.651,11.557C-16.252,11.557 -16.74,11.07 -16.74,10.468L-16.74,-46.695C-16.74,-47.297 -16.252,-47.784 -15.651,-47.784L-2.179,-47.784C-1.577,-47.784 -1.09,-47.297 -1.09,-46.695L-1.09,-37.317C-1.09,-36.715 -0.602,-36.227 0,-36.227" style="fill:rgb(46,48,146);fill-rule:nonzero;"/>
        </g>
        <g transform="matrix(1,0,0,1,297.929,399.929)">
            <path d="M0,-24.854L27.776,-24.854C28.377,-24.854 28.865,-24.366 28.865,-23.764L28.865,-18.323C28.865,-17.721 28.377,-17.233 27.776,-17.233L13.089,-17.233C11.319,-17.233 9.884,-15.798 9.884,-14.028L9.884,-1.09C9.884,-0.488 9.396,0 8.794,0L-8.715,0C-9.317,0 -9.805,-0.488 -9.805,-1.09L-9.805,-16.144C-9.805,-16.745 -9.317,-17.233 -8.715,-17.233L-2.179,-17.233C-1.577,-17.233 -1.09,-17.721 -1.09,-18.323L-1.09,-23.764C-1.09,-24.366 -0.602,-24.854 0,-24.854" style="fill:rgb(0,137,207);fill-rule:nonzero;"/>
        </g>
        <g transform="matrix(1,0,0,1,325.513,391.938)">
            <path d="M0,20.926L-11.435,20.926C-12.037,20.926 -12.524,20.438 -12.524,19.836L-12.524,1.09C-12.524,0.488 -12.037,0 -11.435,0L0,0C0.602,0 1.09,0.488 1.09,1.09L1.09,19.836C1.09,20.438 0.602,20.926 0,20.926" style="fill:rgb(0,137,207);fill-rule:nonzero;"/>
        </g>
        <g transform="matrix(1,0,0,1,313.722,299.322)">
            <path d="M11.791,42.753L-3.102,42.753C-3.704,42.753 -4.192,42.265 -4.192,41.663L-4.192,32.955C-4.192,31.196 -5.618,29.77 -7.377,29.77L-17.854,29.77C-18.456,29.77 -18.943,29.282 -18.943,28.68L-18.943,18.898C-18.943,18.296 -18.456,17.809 -17.854,17.809L-5.281,17.809C-4.68,17.809 -4.192,17.321 -4.192,16.719L-4.192,1.09C-4.192,0.488 -3.704,0 -3.102,0L4.866,0C5.467,0 5.955,0.488 5.955,1.09L5.955,8.413C5.955,9.014 6.443,9.502 7.045,9.502L11.791,9.502C12.392,9.502 12.88,9.99 12.88,10.592L12.88,41.663C12.88,42.265 12.392,42.753 11.791,42.753Z" style="fill:rgb(236,0,140);fill-rule:nonzero;"/>
        </g>
        <g transform="matrix(1,0,0,1,254.98,347.447)">
            <path d="M0,-9.471L14.907,-9.471C15.509,-9.471 15.997,-8.983 15.997,-8.381L15.997,-1.089C15.997,-0.487 15.509,0 14.907,0L0,0C-0.602,0 -1.09,-0.487 -1.09,-1.089L-1.09,-8.381C-1.09,-8.983 -0.602,-9.471 0,-9.471" style="fill:rgb(0,185,242);fill-rule:nonzero;"/>
        </g>
        <g transform="matrix(1,0,0,1,278.199,361.999)">
            <path d="M0,-9.665L0,-12.667C0,-13.269 0.488,-13.757 1.09,-13.757L15.544,-13.757C16.146,-13.757 16.634,-13.269 16.634,-12.667L16.634,-7.453C16.634,-6.852 16.146,-6.364 15.544,-6.364L12.735,-6.364C11.331,-6.364 10.194,-5.226 10.194,-3.823L10.194,3.003C10.194,3.605 9.706,4.092 9.104,4.092L-23.219,4.092C-23.821,4.092 -24.309,3.605 -24.309,3.003L-24.309,-7.486C-24.309,-8.088 -23.821,-8.575 -23.219,-8.575L-1.09,-8.575C-0.488,-8.575 0,-9.063 0,-9.665" style="fill:rgb(0,185,242);fill-rule:nonzero;"/>
        </g>
        <g transform="matrix(1,0,0,1,374.09,388.096)">
            <path d="M0,16.218L-12.218,16.218C-12.82,16.218 -13.308,15.73 -13.308,15.128L-13.308,1.089C-13.308,0.487 -12.82,0 -12.218,0L0,0C0.602,0 1.09,0.487 1.09,1.089L1.09,15.128C1.09,15.73 0.602,16.218 0,16.218" style="fill:rgb(46,48,146);fill-rule:nonzero;"/>
        </g>
        <g transform="matrix(1,0,0,1,346.562,344.238)">
            <path d="M0,-32.001L4.751,-32.001C5.353,-32.001 5.84,-31.513 5.84,-30.911L5.84,-8.592C5.84,-7.99 5.353,-7.502 4.751,-7.502L0,-7.502C-0.602,-7.502 -1.09,-7.99 -1.09,-8.592L-1.09,-30.911C-1.09,-31.513 -0.602,-32.001 0,-32.001M-12.874,-54.409L-12.874,10.505C-12.874,11.106 -12.386,11.594 -11.784,11.594L10.508,11.594C12.558,11.594 14.22,13.256 14.22,15.306L14.22,22.408C14.22,23.01 14.708,23.498 15.31,23.498L27.432,23.498C28.034,23.498 28.521,23.01 28.521,22.408L28.521,10.686C28.521,10.084 29.009,9.596 29.611,9.596L44.525,9.596C45.127,9.596 45.614,9.108 45.614,8.507L45.614,2.278C45.614,1.676 45.127,1.188 44.525,1.188L19.657,1.188C19.055,1.188 18.567,0.7 18.567,0.099L18.567,-7.218C18.567,-7.819 19.055,-8.307 19.657,-8.307L31.617,-8.307C32.219,-8.307 32.707,-8.795 32.707,-9.397L32.707,-20.161C32.707,-20.763 32.219,-21.25 31.617,-21.25L19.657,-21.25C19.055,-21.25 18.567,-21.738 18.567,-22.34L18.567,-40.082C18.567,-40.683 18.08,-41.171 17.478,-41.171L0,-41.171C-0.602,-41.171 -1.09,-41.659 -1.09,-42.261L-1.09,-54.409C-1.09,-55.011 -1.577,-55.499 -2.179,-55.499L-11.784,-55.499C-12.386,-55.499 -12.874,-55.011 -12.874,-54.409" style="fill:rgb(140,99,170);fill-rule:nonzero;"/>
        </g>
    </g>
</svg>
