<?xml version="1.0" encoding="UTF-8" standalone="no"?>
<!DOCTYPE svg PUBLIC "-//W3C//DTD SVG 1.1//EN" "http://www.w3.org/Graphics/SVG/1.1/DTD/svg11.dtd">
<svg width="100%" height="100%" viewBox="0 0 72 72" version="1.1" xmlns="http://www.w3.org/2000/svg" xmlns:xlink="http://www.w3.org/1999/xlink" xml:space="preserve" xmlns:serif="http://www.serif.com/" style="fill-rule:evenodd;clip-rule:evenodd;stroke-linejoin:round;stroke-miterlimit:2;">
    <g>
        <g>
            <g>
                <path d="M-235.4,199L301.1,199L301.1,64.7L-235.4,199Z" style="fill:rgb(76,66,117);fill-rule:nonzero;"/>
                <path d="M-209.9,156.8L-217,123.1C-197.1,118.9 -186.1,118.9 -176.4,118.8C-167.2,118.8 -159.2,118.7 -142.7,115.2C-126.2,111.7 -118.9,108.5 -110.4,104.9C-101.5,101 -91.4,96.6 -71.5,92.4C-51.6,88.2 -40.6,88.2 -30.9,88.1C-21.7,88.1 -13.7,88 2.8,84.5C19.3,81 26.6,77.8 35.1,74.1C44,70.2 54.1,65.8 74,61.6C93.9,57.4 104.9,57.4 114.6,57.3C123.8,57.3 131.8,57.2 148.3,53.7C164.8,50.2 172.1,47 180.6,43.3C189.5,39.4 199.6,35 219.5,30.8C239.4,26.6 250.4,26.6 260.1,26.5C269.3,26.5 277.3,26.4 293.8,22.9L300.9,56.6C281,60.8 270,60.8 260.3,60.9C251.1,60.9 243.1,61 226.6,64.5C210.1,68 202.8,71.2 194.3,74.9C185.4,78.8 175.3,83.2 155.4,87.4C135.5,91.6 124.5,91.6 114.8,91.7C105.6,91.7 97.6,91.8 81.1,95.3C64.8,99 57.4,102.2 49,105.9C40.1,109.8 30,114.2 10.1,118.4C-9.8,122.6 -20.8,122.6 -30.5,122.7C-39.7,122.7 -47.7,122.8 -64.2,126.3C-80.7,129.8 -88,133 -96.5,136.6C-105.4,140.5 -115.5,144.9 -135.4,149.1C-155.3,153.3 -166.3,153.3 -176,153.4C-185.4,153.3 -193.4,153.4 -209.9,156.8Z" style="fill:rgb(228,175,197);fill-rule:nonzero;"/>
                <path d="M-200.4,201.8L-207.5,168.1C-187.6,163.9 -176.6,163.9 -166.9,163.8C-157.7,163.8 -149.7,163.7 -133.2,160.2C-116.7,156.7 -109.4,153.5 -100.9,149.9C-92,146 -81.9,141.6 -62,137.4C-42.1,133.2 -31.1,133.2 -21.4,133.1C-12.2,133.1 -4.2,133 12.3,129.5C28.8,126 36.1,122.8 44.6,119.1C53.5,115.2 63.6,110.8 83.5,106.6C103.4,102.4 114.4,102.4 124.1,102.3C133.3,102.3 141.3,102.2 157.8,98.7C174.3,95.2 181.6,92 190.1,88.3C199,84.4 209.1,80 229,75.8C248.9,71.6 259.9,71.6 269.6,71.5C278.8,71.5 286.8,71.4 303.3,67.9L310.4,101.6C290.5,105.8 279.5,105.8 269.8,105.9C260.6,105.9 252.6,106 236.1,109.5C219.6,113 212.3,116.2 203.8,119.9C194.9,123.8 184.8,128.2 164.9,132.4C145,136.6 134,136.6 124.3,136.7C115.1,136.7 107.1,136.8 90.6,140.3C74.1,143.8 66.8,147 58.3,150.7C49.4,154.6 39.3,159 19.4,163.2C-0.5,167.4 -11.5,167.4 -21.2,167.5C-30.4,167.5 -38.4,167.6 -54.9,171.1C-71.4,174.6 -78.7,177.8 -87.2,181.4C-96.1,185.3 -106.2,189.7 -126.1,193.9C-146,198.1 -157,198.1 -166.7,198.2C-176,198.3 -184,198.3 -200.4,201.8Z" style="fill:rgb(76,66,118);fill-rule:nonzero;"/>
                <path d="M-219.4,111.9L-226.5,78.2C-206.6,74 -195.6,74 -185.9,73.9C-176.7,73.9 -168.7,73.8 -152.2,70.3C-135.7,66.8 -128.4,63.6 -119.9,60C-111,56.1 -100.9,51.7 -81,47.5C-61.1,43.3 -50.1,43.3 -40.4,43.2C-31.2,43.2 -23.2,43.1 -6.7,39.6C9.8,36.1 17.1,32.9 25.6,29.2C34.5,25.3 44.6,20.9 64.5,16.7C84.4,12.5 95.4,12.5 105.1,12.4C114.3,12.4 122.3,12.3 138.8,8.8C155.3,5.3 162.6,2.1 171.1,-1.6C180,-5.5 190.1,-9.9 210,-14.1C229.9,-18.3 240.9,-18.3 250.6,-18.4C259.8,-18.4 267.8,-18.5 284.3,-22L291.4,11.7C271.5,15.9 260.5,15.9 250.8,16C241.6,16 233.6,16.1 217.1,19.6C200.6,23.1 193.3,26.3 184.8,30C175.9,33.9 165.8,38.3 145.9,42.5C126,46.7 115,46.7 105.3,46.8C96.1,46.8 88.1,46.9 71.6,50.4C55.3,54.1 48,57.2 39.5,60.9C30.6,64.8 20.5,69.2 0.6,73.4C-19.3,77.6 -30.3,77.6 -40,77.7C-49.2,77.7 -57.2,77.8 -73.7,81.3C-90.2,84.8 -97.5,88 -106,91.6C-114.9,95.5 -125,99.9 -144.9,104.1C-164.8,108.3 -175.8,108.3 -185.5,108.4C-194.9,108.4 -202.9,108.5 -219.4,111.9Z" style="fill:rgb(188,214,242);fill-rule:nonzero;"/>
                <path d="M-228.8,67L-235.9,33.3C-216,29.1 -205,29.1 -195.3,29C-186.1,29 -178.1,28.9 -161.6,25.4C-145.1,21.9 -137.8,18.7 -129.3,15.1C-120.4,11.2 -110.3,6.8 -90.4,2.6C-70.5,-1.6 -59.5,-1.6 -49.8,-1.7C-40.6,-1.7 -32.6,-1.8 -16.1,-5.3C0.5,-8.7 7.8,-11.9 16.3,-15.5C25.2,-19.4 35.3,-23.8 55.2,-28C75.1,-32.2 86.1,-32.2 95.8,-32.3C105,-32.3 113,-32.4 129.5,-35.9C146,-39.4 153.3,-42.6 161.8,-46.3C170.7,-50.2 180.8,-54.6 200.7,-58.8C220.6,-63 231.6,-63 241.3,-63.1C250.5,-63.1 258.5,-63.2 275,-66.7L282.1,-33C262.2,-28.8 251.2,-28.8 241.5,-28.7C232.3,-28.7 224.3,-28.6 207.8,-25.1C191.3,-21.6 184,-18.4 175.5,-14.7C166.6,-10.8 156.5,-6.4 136.6,-2.2C116.8,2 105.8,2.1 96,2.1C86.8,2.1 78.8,2.2 62.3,5.7C45.8,9.1 38.5,12.3 30,16C21.1,19.9 11,24.3 -8.9,28.5C-28.8,32.7 -39.8,32.7 -49.5,32.8C-58.7,32.8 -66.7,32.9 -83.2,36.4C-99.7,39.9 -107,43.1 -115.5,46.7C-124.4,50.6 -134.5,55 -154.4,59.2C-174.3,63.4 -185.3,63.4 -195,63.5C-204.4,63.5 -212.4,63.5 -228.8,67Z" style="fill:rgb(248,200,223);fill-rule:nonzero;"/>
                <path d="M-236.7,29.6L-243.8,-4.1C-223.9,-8.3 -212.9,-8.3 -203.2,-8.4C-194,-8.4 -186,-8.5 -169.5,-12C-153,-15.5 -145.7,-18.7 -137.2,-22.3C-128.3,-26.2 -118.2,-30.6 -98.3,-34.8C-78.4,-39 -67.4,-39 -57.7,-39.1C-48.5,-39.1 -40.5,-39.2 -24,-42.7C-7.4,-46.1 -0.1,-49.3 8.4,-53C17.3,-56.9 27.4,-61.3 47.3,-65.5C67.2,-69.7 78.2,-69.7 87.9,-69.8C97.1,-69.8 105.1,-69.9 121.6,-73.4C138.1,-76.9 145.4,-80.1 153.9,-83.8C162.8,-87.7 172.9,-92.1 192.8,-96.3C212.7,-100.5 223.7,-100.5 233.4,-100.6C242.6,-100.6 250.6,-100.7 267.1,-104.2L274.2,-70.5C254.3,-66.3 243.3,-66.3 233.6,-66.2C224.4,-66.2 216.4,-66.1 199.9,-62.6C183.4,-59.1 176.1,-55.9 167.6,-52.2C158.7,-48.3 148.6,-43.9 128.7,-39.7C108.8,-35.5 97.8,-35.5 88.1,-35.4C78.9,-35.4 70.9,-35.3 54.4,-31.8C37.9,-28.3 30.6,-25.1 22.1,-21.4C13.2,-17.5 3.1,-13.1 -16.8,-8.9C-36.7,-4.7 -47.7,-4.7 -57.4,-4.6C-66.6,-4.6 -74.6,-4.5 -91.1,-1C-107.6,2.5 -114.9,5.7 -123.4,9.3C-132.3,13.2 -142.4,17.6 -162.3,21.8C-182.2,26 -193.3,26 -203,26C-212.3,26 -220.2,26.1 -236.7,29.6Z" style="fill:rgb(74,194,196);fill-rule:nonzero;"/>
                <path d="M-206,175.6L-213.1,141.9C-193.2,137.7 -182.2,137.7 -172.5,137.6C-163.3,137.6 -155.3,137.5 -138.8,134C-122.3,130.5 -115,127.3 -106.5,123.7C-97.6,119.8 -87.5,115.4 -67.6,111.2C-47.7,107 -36.7,107 -27,106.9C-17.8,106.9 -9.8,106.8 6.7,103.3C23.2,99.8 30.5,96.6 39,92.9C47.9,89 58,84.6 77.9,80.4C97.8,76.2 108.8,76.2 118.5,76.1C127.7,76.1 135.7,76 152.2,72.5C168.7,69 176,65.8 184.5,62.1C193.4,58.2 203.5,53.8 223.4,49.6C243.3,45.4 254.3,45.4 264,45.3C273.2,45.3 281.2,45.2 297.7,41.7L304.8,75.4C284.9,79.6 273.9,79.6 264.2,79.7C255,79.7 247,79.8 230.5,83.3C214,86.8 206.7,90 198.2,93.7C189.3,97.6 179.2,102 159.3,106.2C139.4,110.4 128.4,110.4 118.7,110.5C109.5,110.5 101.5,110.6 85,114.1C68.5,117.6 61.2,120.8 52.7,124.5C43.8,128.4 33.7,132.8 13.8,137C-6.1,141.2 -17.1,141.2 -26.8,141.3C-36,141.3 -44,141.4 -60.5,144.9C-77,148.4 -84.3,151.6 -92.8,155.2C-101.7,159.1 -111.8,163.5 -131.7,167.7C-151.6,171.9 -162.6,171.9 -172.3,172C-181.5,172.1 -189.5,172.1 -206,175.6Z" style="fill:rgb(228,175,197);fill-rule:nonzero;"/>
                <path d="M-214.2,136.3L-220.5,106.4C-200.8,102.2 -190.3,102.2 -180.2,102.1C-171.2,102.1 -162.8,102 -146.1,98.5C-129.4,95 -121.7,91.6 -113.4,88C-104.1,84 -94.6,79.8 -74.8,75.7C-55.1,71.5 -44.6,71.5 -34.5,71.4C-25.5,71.4 -17.1,71.3 -0.4,67.8C16.3,64.3 24,60.9 32.3,57.3C41.6,53.3 51.1,49.1 70.9,45C90.6,40.8 101.1,40.8 111.2,40.7C120.2,40.7 128.6,40.6 145.3,37.1C162,33.6 169.7,30.2 178,26.6C187.3,22.6 196.8,18.4 216.6,14.3C236.3,10.1 246.8,10.1 256.9,10C265.9,10 274.3,9.9 291,6.4L297.3,36.3C277.6,40.5 267.1,40.5 257,40.6C248,40.6 239.6,40.7 222.9,44.2C206.2,47.7 198.5,51.1 190.2,54.7C180.9,58.7 171.4,62.9 151.6,67C131.9,71.2 121.4,71.2 111.3,71.3C102.3,71.3 93.9,71.4 77.2,74.9C60.5,78.4 52.8,81.8 44.5,85.4C35.2,89.4 25.7,93.6 5.9,97.7C-13.8,101.9 -24.3,101.9 -34.4,102C-43.4,102 -51.8,102.1 -68.5,105.6C-85.2,109.1 -92.9,112.5 -101.2,116.1C-110.5,120.1 -120,124.3 -139.8,128.4C-159.5,132.6 -170,132.6 -180.1,132.7C-189.1,132.7 -197.6,132.7 -214.2,136.3Z" style="fill:rgb(229,0,125);fill-rule:nonzero;"/>
                <path d="M-235.5,35.2L-240.2,12.8C-220.9,8.7 -210.6,8.7 -200.7,8.6C-191.5,8.6 -182.9,8.5 -165.8,4.9C-148.7,1.3 -140.8,-2.1 -132.4,-5.8C-123.3,-9.8 -113.9,-13.8 -94.6,-17.9C-75.3,-22 -65,-22 -55.1,-22.1C-45.9,-22.1 -37.3,-22.2 -20.2,-25.8C-3.1,-29.4 4.8,-32.8 13.2,-36.5C22.3,-40.5 31.7,-44.5 51,-48.6C70.3,-52.7 80.6,-52.7 90.5,-52.8C99.7,-52.8 108.3,-52.9 125.4,-56.5C142.5,-60.1 150.4,-63.5 158.8,-67.2C167.9,-71.2 177.3,-75.2 196.6,-79.3C215.9,-83.4 226.2,-83.4 236.1,-83.5C245.3,-83.5 253.9,-83.6 271,-87.2L275.7,-64.8C256.4,-60.7 246.1,-60.7 236.2,-60.6C227,-60.6 218.4,-60.5 201.3,-56.9C184.2,-53.3 176.3,-49.9 167.9,-46.2C158.8,-42.2 149.4,-38.2 130.1,-34.1C110.8,-30 100.5,-30 90.6,-29.9C81.4,-29.9 72.8,-29.8 55.7,-26.2C38.6,-22.6 30.7,-19.2 22.3,-15.5C13.2,-11.5 3.8,-7.5 -15.5,-3.4C-34.8,0.7 -45.1,0.7 -55,0.8C-64.2,0.8 -72.8,0.9 -89.9,4.5C-107,8.1 -114.9,11.5 -123.3,15.2C-132.4,19.2 -141.8,23.2 -161.1,27.3C-180.4,31.4 -190.7,31.4 -200.6,31.5C-209.8,31.5 -218.5,31.6 -235.5,35.2Z" style="fill:rgb(178,152,188);fill-rule:nonzero;"/>
                <path d="M-225.9,81L-231,56.7C-211.6,52.6 -201.3,52.6 -191.3,52.5C-182.2,52.5 -173.6,52.4 -156.6,48.8C-139.6,45.2 -131.7,41.8 -123.4,38.2C-114.3,34.2 -104.8,30.1 -85.4,26C-66,21.9 -55.7,21.9 -45.7,21.8C-36.6,21.8 -28,21.7 -11,18.1C6,14.5 13.9,11.1 22.2,7.5C31.3,3.5 40.8,-0.6 60.2,-4.7C79.6,-8.8 89.9,-8.8 99.9,-8.9C109,-8.9 117.6,-9 134.6,-12.6C151.6,-16.2 159.5,-19.6 167.8,-23.2C176.9,-27.2 186.4,-31.3 205.8,-35.4C225.2,-39.5 235.5,-39.5 245.5,-39.6C254.6,-39.6 263.2,-39.7 280.2,-43.3L285.3,-19C265.9,-14.9 255.6,-14.9 245.6,-14.8C236.5,-14.8 227.9,-14.7 210.9,-11.1C193.9,-7.5 186,-4.1 177.7,-0.5C168.6,3.5 159.1,7.6 139.7,11.7C120.2,15.9 109.9,16 100,16C90.9,16 82.3,16.1 65.3,19.7C48.3,23.3 40.4,26.7 32.1,30.3C23,34.3 13.5,38.4 -5.9,42.5C-25.3,46.6 -35.6,46.6 -45.6,46.7C-54.7,46.7 -63.3,46.8 -80.3,50.4C-97.3,54 -105.2,57.4 -113.5,61C-122.6,65 -132.1,69.1 -151.5,73.2C-170.9,77.3 -181.2,77.3 -191.2,77.4C-200.3,77.4 -208.9,77.5 -225.9,81Z" style="fill:rgb(92,36,131);fill-rule:nonzero;"/>
            </g>
        </g>
    </g>
</svg>
