<?xml version="1.0" encoding="UTF-8" standalone="no"?>
<!DOCTYPE svg PUBLIC "-//W3C//DTD SVG 1.1//EN" "http://www.w3.org/Graphics/SVG/1.1/DTD/svg11.dtd">
<svg width="100%" height="100%" viewBox="0 0 4000 4000" version="1.1" xmlns="http://www.w3.org/2000/svg" xmlns:xlink="http://www.w3.org/1999/xlink" xml:space="preserve" xmlns:serif="http://www.serif.com/" style="fill-rule:evenodd;clip-rule:evenodd;stroke-linejoin:round;stroke-miterlimit:2;">
    <g>
        <g>
            <path d="M-3988.7,6226.1L7849.8,6226.1L7849.8,3261.7L-3988.7,6226.1Z" style="fill:rgb(152,116,178);fill-rule:nonzero;"/>
            <path d="M-4452.2,1531.3L6353.8,-1543.1L-4452.2,-1543.1L-4452.2,1531.3Z" style="fill:rgb(188,214,242);fill-rule:nonzero;"/>
            <path d="M-3425.8,5295.7L-3582.3,4552.9C-3143,4460.3 -2899.9,4459.2 -2685.5,4458.1C-2481.4,4457.1 -2305.2,4456.2 -1941.5,4379.6C-1577.8,4303 -1416.2,4232.7 -1229.1,4151.2C-1032.5,4065.6 -809.6,3968.7 -370.3,3876.1C69,3783.5 312.1,3782.3 526.5,3781.3C730.6,3780.3 906.8,3779.4 1270.5,3702.8C1634.2,3626.2 1795.8,3555.9 1983,3474.4C2179.6,3388.8 2402.5,3291.9 2841.8,3199.3C3281.1,3106.7 3524.1,3105.6 3738.6,3104.5C3942.7,3103.5 4118.9,3102.6 4482.6,3026C4846.4,2949.4 5008,2879.1 5195.1,2797.6C5391.8,2712 5614.6,2615.1 6053.9,2522.5C6493.2,2429.9 6736.3,2428.7 6950.7,2427.7C7154.8,2426.7 7331,2425.8 7694.8,2349.2L7851.3,3092C7412,3184.6 7168.9,3185.7 6954.5,3186.8C6750.4,3187.8 6574.2,3188.7 6210.4,3265.3C5846.7,3341.9 5685,3412.2 5497.9,3493.7C5301.2,3579.3 5078.4,3676.2 4639,3768.8C4199.7,3861.4 3956.7,3862.5 3742.2,3863.6C3538.1,3864.6 3361.9,3865.5 2998.2,3942.1C2634.5,4018.7 2472.9,4089 2285.7,4170.5C2089.1,4256.1 1866.2,4353 1426.9,4445.6C987.6,4538.2 744.6,4539.3 530.1,4540.4C326,4541.4 149.8,4542.3 -213.9,4618.9C-577.6,4695.5 -739.2,4765.8 -926.3,4847.3C-1122.9,4932.9 -1345.8,5029.8 -1785.1,5122.4C-2224.4,5215 -2467.4,5216.1 -2681.9,5217.2C-2885.8,5218.2 -3062,5219.1 -3425.8,5295.7Z" style="fill:rgb(228,176,197);fill-rule:nonzero;"/>
            <path d="M-3216.9,6287L-3373.4,5544.2C-2934.1,5451.6 -2691,5450.5 -2476.6,5449.4C-2272.5,5448.4 -2096.3,5447.5 -1732.6,5370.9C-1368.9,5294.3 -1207.3,5224 -1020.1,5142.5C-823.5,5056.9 -600.6,4960 -161.3,4867.4C278,4774.8 521,4773.7 735.5,4772.6C939.6,4771.6 1115.8,4770.7 1479.5,4694.1C1843.2,4617.5 2004.8,4547.2 2192,4465.7C2388.6,4380.1 2611.5,4283.2 3050.8,4190.6C3490.1,4098 3733.2,4096.9 3947.6,4095.8C4151.7,4094.8 4327.9,4093.9 4691.6,4017.3C5055.3,3940.7 5217,3870.3 5404.1,3788.9C5600.8,3703.3 5823.6,3606.4 6263,3513.8C6702.3,3421.2 6945.4,3420.1 7159.8,3419C7363.9,3418 7540.1,3417.1 7903.9,3340.5L8060.4,4083.3C7621.1,4175.9 7378,4177.1 7163.6,4178.1C6959.5,4179.1 6783.3,4180 6419.5,4256.6C6055.7,4333.2 5894.1,4403.6 5707,4485C5510.3,4570.6 5287.5,4667.5 4848.2,4760.1C4408.9,4852.7 4165.9,4853.8 3951.4,4854.9C3747.3,4855.9 3571.1,4856.8 3207.4,4933.4C2843.7,5010 2682.1,5080.3 2494.9,5161.8C2298.3,5247.4 2075.4,5344.3 1636.1,5436.9C1196.8,5529.5 953.7,5530.6 739.3,5531.7C535.2,5532.7 359,5533.6 -4.7,5610.2C-368.4,5686.8 -530,5757.1 -717.1,5838.6C-913.8,5924.2 -1136.6,6021.1 -1575.9,6113.7C-2015.2,6206.3 -2258.2,6207.5 -2472.7,6208.5C-2677,6209.5 -2853.2,6210.3 -3216.9,6287Z" style="fill:rgb(152,116,178);fill-rule:nonzero;"/>
            <path d="M-3634.6,4304.5L-3791.1,3561.7C-3351.8,3469.1 -3108.7,3468 -2894.3,3466.9C-2690.2,3465.9 -2514,3465 -2150.3,3388.4C-1786.6,3311.8 -1625,3241.5 -1437.9,3160C-1241.3,3074.4 -1018.4,2977.5 -579.1,2884.9C-139.8,2792.3 103.2,2791.2 317.7,2790.1C521.8,2789.1 698,2788.2 1061.7,2711.6C1425.4,2635 1587,2564.7 1774.2,2483.2C1970.8,2397.6 2193.7,2300.7 2633,2208.1C3072.3,2115.5 3315.3,2114.4 3529.8,2113.3C3733.9,2112.3 3910.1,2111.4 4273.8,2034.8C4637.5,1958.2 4799.2,1887.8 4986.3,1806.4C5183,1720.8 5405.8,1623.9 5845.2,1531.3C6284.5,1438.7 6527.6,1437.6 6742,1436.5C6946.1,1435.5 7122.3,1434.6 7486.1,1358L7642.6,2100.8C7203.3,2193.4 6960.2,2194.6 6745.8,2195.6C6541.7,2196.6 6365.5,2197.5 6001.7,2274.1C5637.9,2350.7 5476.3,2421.1 5289.2,2502.5C5092.5,2588.1 4869.7,2685 4430.4,2777.6C3991.1,2870.2 3748,2871.4 3533.6,2872.4C3329.5,2873.4 3153.3,2874.3 2789.6,2950.9C2425.9,3027.5 2264.3,3097.8 2077.1,3179.3C1880.5,3264.9 1657.6,3361.8 1218.3,3454.4C779,3547 535.9,3548.1 321.5,3549.2C117.4,3550.2 -58.8,3551.1 -422.5,3627.7C-786.2,3704.3 -947.8,3774.6 -1134.9,3856.1C-1331.5,3941.7 -1554.4,4038.6 -1993.7,4131.2C-2433,4223.8 -2676.1,4225 -2890.5,4226C-3094.6,4227 -3270.9,4227.9 -3634.6,4304.5Z" style="fill:rgb(188,214,242);fill-rule:nonzero;"/>
            <path d="M-3843.4,3313.3L-3999.9,2570.5C-3560.6,2477.9 -3317.5,2476.8 -3103.1,2475.7C-2899,2474.7 -2722.8,2473.8 -2359.1,2397.2C-1995.4,2320.6 -1833.8,2250.3 -1646.7,2168.8C-1450.1,2083.2 -1227.2,1986.3 -787.9,1893.7C-348.6,1801.1 -105.5,1800 108.9,1798.9C313,1797.9 489.2,1797 852.9,1720.4C1216.6,1643.8 1378.2,1573.5 1565.4,1492C1762,1406.4 1984.9,1309.5 2424.2,1216.9C2863.5,1124.3 3106.5,1123.2 3321,1122.1C3525.1,1121.1 3701.3,1120.2 4065,1043.6C4428.8,967 4590.4,896.7 4777.5,815.2C4974.2,729.6 5197,632.7 5636.3,540.1C6075.6,447.5 6318.7,446.3 6533.1,445.3C6737.2,444.3 6913.4,443.4 7277.2,366.8L7433.7,1109.6C6994.4,1202.2 6751.3,1203.3 6536.9,1204.4C6332.8,1205.4 6156.6,1206.3 5792.8,1282.9C5429.1,1359.5 5267.4,1429.8 5080.3,1511.3C4883.6,1596.9 4660.8,1693.8 4221.4,1786.4C3782.1,1879 3539.1,1880.2 3324.6,1881.2C3120.5,1882.2 2944.3,1883.1 2580.6,1959.7C2216.9,2036.3 2055.3,2106.6 1868.1,2188.1C1671.5,2273.7 1448.6,2370.6 1009.3,2463.2C570,2555.8 327,2556.9 112.5,2558C-91.6,2559 -267.8,2559.9 -631.5,2636.5C-995.2,2713.1 -1156.8,2783.4 -1343.9,2864.9C-1540.5,2950.5 -1763.4,3047.4 -2202.7,3140C-2642,3232.6 -2885.1,3233.7 -3099.5,3234.8C-3303.5,3235.8 -3479.7,3236.7 -3843.4,3313.3Z" style="fill:rgb(248,200,223);fill-rule:nonzero;"/>
            <path d="M-4017.5,2487.3L-4174,1744.5C-3734.7,1651.9 -3491.6,1650.8 -3277.2,1649.7C-3073.1,1648.7 -2896.9,1647.8 -2533.2,1571.2C-2169.5,1494.6 -2007.9,1424.3 -1820.7,1342.8C-1624.1,1257.2 -1401.2,1160.3 -961.9,1067.7C-522.6,975.1 -279.6,974 -65.1,972.9C139,971.9 315.2,971 678.9,894.4C1042.6,817.8 1204.2,747.5 1391.4,666C1588,580.4 1810.9,483.5 2250.2,390.9C2689.5,298.3 2932.5,297.2 3147,296.1C3351.1,295.1 3527.3,294.2 3891,217.6C4254.7,141 4416.4,70.7 4603.5,-10.8C4800.2,-96.4 5023,-193.3 5462.4,-285.9C5901.7,-378.5 6144.8,-379.7 6359.2,-380.7C6563.3,-381.7 6739.5,-382.6 7103.3,-459.2L7259.8,283.6C6820.5,376.2 6577.4,377.4 6363,378.4C6158.9,379.4 5982.7,380.3 5618.9,456.9C5255.1,533.5 5093.5,603.8 4906.4,685.3C4709.7,770.8 4486.9,867.8 4047.6,960.4C3608.3,1053 3365.2,1054.2 3150.8,1055.2C2946.7,1056.2 2770.5,1057.1 2406.8,1133.7C2043.1,1210.3 1881.5,1280.6 1694.3,1362.1C1497.7,1447.7 1274.8,1544.6 835.5,1637.2C396.2,1729.8 153.1,1730.9 -61.3,1732C-265.4,1733 -441.6,1733.9 -805.3,1810.5C-1169,1887.1 -1330.6,1957.4 -1517.7,2038.9C-1714.4,2124.5 -1937.2,2221.4 -2376.5,2314C-2815.8,2406.6 -3058.8,2407.8 -3273.3,2408.8C-3477.5,2409.8 -3653.7,2410.7 -4017.5,2487.3Z" style="fill:rgb(33,166,149);fill-rule:nonzero;"/>
            <path d="M-4261.1,1330.9L-4417.6,588.1C-3978.3,495.5 -3735.3,494.4 -3520.8,493.3C-3316.7,492.3 -3140.5,491.4 -2776.8,414.8C-2413.1,338.2 -2251.5,267.9 -2064.4,186.4C-1867.8,100.8 -1644.9,3.9 -1205.6,-88.7C-766.3,-181.3 -523.2,-182.5 -308.8,-183.5C-104.7,-184.5 71.5,-185.4 435.2,-262C798.9,-338.6 960.5,-408.9 1147.7,-490.4C1344.3,-576 1567.2,-672.9 2006.5,-765.5C2445.8,-858.1 2688.8,-859.2 2903.3,-860.3C3107.4,-861.3 3283.6,-862.2 3647.3,-938.8C4011.1,-1015.4 4172.7,-1085.7 4359.8,-1167.2C4556.5,-1252.8 4779.3,-1349.7 5218.6,-1442.3C5657.9,-1534.9 5901,-1536.1 6115.4,-1537.1C6319.5,-1538.1 6495.7,-1539 6859.5,-1615.6L7016,-872.8C6576.7,-780.2 6333.6,-779.1 6119.2,-778C5915.1,-777 5738.9,-776.1 5375.1,-699.5C5011.3,-622.9 4849.8,-552.4 4662.7,-471C4466,-385.4 4243.2,-288.5 3803.9,-195.9C3364.6,-103.3 3121.6,-102.2 2907.1,-101.1C2703,-100.1 2526.8,-99.2 2163.1,-22.6C1799.4,54 1637.8,124.3 1450.6,205.8C1254,291.4 1031.1,388.3 591.8,480.9C152.5,573.5 -90.6,574.6 -305,575.6C-509.1,576.6 -685.3,577.5 -1049,654.1C-1412.7,730.7 -1574.3,801 -1761.4,882.5C-1958,968.1 -2180.9,1065 -2620.2,1157.6C-3059.5,1250.2 -3302.6,1251.4 -3517,1252.4C-3721.2,1253.4 -3897.4,1254.2 -4261.1,1330.9Z" style="fill:rgb(188,214,242);fill-rule:nonzero;"/>
            <path d="M-3338.8,5708.7L-3495.3,4965.9C-3056,4873.3 -2813,4872.2 -2598.5,4871.1C-2394.4,4870.1 -2218.2,4869.2 -1854.5,4792.6C-1490.8,4716 -1329.2,4645.7 -1142.1,4564.2C-945.4,4478.6 -722.6,4381.7 -283.3,4289.1C156,4196.5 399,4195.3 613.5,4194.3C817.6,4193.3 993.8,4192.4 1357.5,4115.8C1721.2,4039.2 1882.8,3968.9 2070,3887.4C2266.6,3801.8 2489.5,3704.9 2928.8,3612.3C3368.1,3519.7 3611.2,3518.6 3825.6,3517.5C4029.7,3516.5 4205.9,3515.6 4569.6,3439C4933.3,3362.4 5095,3292 5282.1,3210.6C5478.8,3125 5701.6,3028.1 6140.9,2935.5C6580.2,2842.9 6823.3,2841.7 7037.7,2840.7C7241.8,2839.7 7418,2838.8 7781.8,2762.2L7938.3,3505C7499,3597.6 7255.9,3598.8 7041.5,3599.8C6837.4,3600.8 6661.2,3601.7 6297.4,3678.3C5933.7,3754.9 5772,3825.2 5584.9,3906.7C5388.2,3992.3 5165.4,4089.2 4726,4181.8C4286.7,4274.4 4043.7,4275.5 3829.2,4276.6C3625.1,4277.6 3448.9,4278.5 3085.2,4355.1C2721.5,4431.7 2559.9,4502 2372.7,4583.5C2176.1,4669.1 1953.2,4766 1513.9,4858.6C1074.6,4951.2 831.6,4952.3 617.1,4953.4C413,4954.4 236.8,4955.3 -126.9,5031.9C-490.6,5108.5 -652.2,5178.8 -839.4,5260.3C-1036,5345.9 -1258.9,5442.8 -1698.2,5535.4C-2137.5,5628 -2380.6,5629.2 -2595,5630.2C-2798.8,5631.3 -2975,5632.1 -3338.8,5708.7Z" style="fill:rgb(228,176,197);fill-rule:nonzero;"/>
            <path d="M-3521.5,4841.5L-3660.6,4181.2C-3225.5,4089.5 -2995.1,4088.4 -2772.3,4087.3C-2574.5,4086.3 -2387.7,4085.4 -2019.8,4007.9C-1651.9,3930.4 -1480.6,3855.9 -1299.2,3776.9C-1094.9,3688 -883.6,3596.1 -448.5,3504.4C-13.4,3412.7 217,3411.6 439.8,3410.5C637.6,3409.5 824.4,3408.6 1192.3,3331.1C1560.2,3253.6 1731.5,3179.1 1912.9,3100.1C2117.2,3011.2 2328.5,2919.3 2763.6,2827.6C3198.7,2735.9 3429.1,2734.8 3651.9,2733.7C3849.7,2732.7 4036.5,2731.8 4404.4,2654.3C4772.4,2576.8 4943.7,2502.2 5125,2423.3C5329.3,2334.4 5540.6,2242.5 5975.7,2150.8C6410.8,2059.1 6641.2,2058 6864,2056.9C7061.8,2055.9 7248.6,2055 7616.6,1977.5L7755.7,2637.8C7320.6,2729.5 7090.2,2730.6 6867.4,2731.7C6669.6,2732.7 6482.8,2733.6 6114.8,2811.1C5746.9,2888.6 5575.5,2963.2 5394.2,3042.1C5189.9,3131 4978.6,3222.9 4543.5,3314.6C4108.4,3406.3 3878,3407.4 3655.2,3408.5C3457.4,3409.5 3270.6,3410.4 2902.7,3487.9C2534.8,3565.4 2363.5,3639.9 2182.1,3718.9C1977.8,3807.8 1766.5,3899.7 1331.4,3991.4C896.3,4083.1 665.9,4084.2 443.1,4085.3C245.3,4086.3 58.5,4087.2 -309.4,4164.7C-677.3,4242.2 -848.6,4316.7 -1030,4395.7C-1234.3,4484.6 -1445.6,4576.5 -1880.7,4668.2C-2315.8,4759.9 -2546.2,4761 -2769,4762.1C-2966.7,4763 -3153.6,4763.9 -3521.5,4841.5Z" style="fill:rgb(229,0,125);fill-rule:nonzero;"/>
            <path d="M-3991.4,2611.3L-4095.7,2116.1C-3669,2026.2 -3443,2025.1 -3224.4,2024C-3022.2,2023 -2831.2,2022.1 -2454.9,1942.8C-2078.6,1863.5 -1903.5,1787.3 -1718.1,1706.7C-1517.7,1619.5 -1310.4,1529.3 -883.7,1439.4C-457,1349.5 -231,1348.4 -12.4,1347.3C189.8,1346.3 380.8,1345.4 757.1,1266.1C1133.4,1186.8 1308.5,1110.6 1494,1030C1694.4,942.8 1901.7,852.6 2328.4,762.7C2755.1,672.8 2981.1,671.7 3199.7,670.6C3401.9,669.6 3592.9,668.7 3969.2,589.4C4345.5,510.1 4520.7,433.9 4706.1,353.2C4906.6,266 5113.8,175.8 5540.6,85.9C5967.3,-4 6193.4,-5.1 6412,-6.2C6614.2,-7.2 6805.2,-8.1 7181.5,-87.4L7285.8,407.8C6859.1,497.7 6633,498.8 6414.4,499.9C6212.2,500.9 6021.2,501.8 5644.9,581.1C5268.5,660.4 5093.4,736.6 4908,817.3C4707.5,904.5 4500.3,994.7 4073.5,1084.6C3646.8,1174.5 3420.8,1175.6 3202.2,1176.7C3000,1177.7 2809,1178.6 2432.7,1257.9C2056.4,1337.2 1881.3,1413.4 1695.8,1494C1495.4,1581.2 1288.1,1671.4 861.4,1761.3C434.7,1851.2 208.7,1852.3 -9.9,1853.4C-212.1,1854.4 -403.1,1855.3 -779.4,1934.6C-1155.7,2013.9 -1330.8,2090.1 -1516.2,2170.7C-1716.6,2257.9 -1923.9,2348.1 -2350.6,2438C-2777.3,2527.9 -3003.3,2529 -3221.9,2530.1C-3424,2531.1 -3615,2532 -3991.4,2611.3Z" style="fill:rgb(201,185,219);fill-rule:nonzero;"/>
            <path d="M-3778.2,3623.1L-3891.2,3086.6C-3462.4,2996.3 -3235.3,2995.1 -3015.6,2994.1C-2814.5,2993.1 -2624.6,2992.2 -2250.4,2913.3C-1876.2,2834.5 -1702,2758.7 -1517.6,2678.5C-1316.2,2590.9 -1107.9,2500.2 -679.1,2409.9C-250.3,2319.6 -23.2,2318.4 196.5,2317.4C397.6,2316.4 587.5,2315.5 961.7,2236.6C1335.9,2157.8 1510.1,2082 1694.5,2001.7C1895.9,1914.1 2104.2,1823.5 2533,1733.1C2961.8,1642.8 3188.9,1641.6 3408.6,1640.6C3609.7,1639.6 3799.6,1638.7 4173.8,1559.8C4548.1,1480.9 4722.2,1405.2 4906.6,1324.9C5108,1237.3 5316.3,1146.6 5745.1,1056.3C6173.9,966 6401.1,964.8 6620.7,963.8C6821.8,962.8 7011.7,961.9 7386,883L7499,1419.5C7070.2,1509.9 6843,1511 6623.4,1512C6422.3,1513 6232.4,1513.9 5858.1,1592.8C5483.9,1671.7 5309.7,1747.4 5125.3,1827.7C4923.9,1915.3 4715.6,2006 4286.8,2096.3C3858,2186.6 3630.9,2187.8 3411.2,2188.8C3210.1,2189.8 3020.2,2190.7 2646,2269.6C2271.8,2348.5 2097.6,2424.2 1913.2,2504.5C1711.8,2592.1 1503.5,2682.7 1074.7,2773.1C645.9,2863.4 418.8,2864.6 199.1,2865.6C-2,2866.6 -191.9,2867.5 -566.1,2946.4C-940.3,3025.2 -1114.5,3101 -1298.9,3181.2C-1500.3,3268.8 -1708.6,3359.4 -2137.4,3449.8C-2566.2,3540.1 -2793.3,3541.3 -3013,3542.3C-3214,3543.4 -3403.9,3544.3 -3778.2,3623.1Z" style="fill:rgb(92,36,131);fill-rule:nonzero;"/>
            <path d="M-4165.4,1785.3L-4269.7,1290.1C-3843,1200.2 -3617,1199.1 -3398.4,1198C-3196.2,1197 -3005.2,1196.1 -2628.9,1116.8C-2252.6,1037.5 -2077.5,961.3 -1892.1,880.7C-1691.7,793.5 -1484.4,703.3 -1057.7,613.4C-631,523.5 -405,522.4 -186.4,521.3C15.8,520.3 206.8,519.4 583.1,440.1C959.4,360.8 1134.5,284.6 1320,204C1520.4,116.8 1727.7,26.6 2154.4,-63.3C2581.1,-153.2 2807.1,-154.3 3025.7,-155.4C3227.9,-156.4 3418.9,-157.3 3795.2,-236.6C4171.5,-315.9 4346.7,-392.1 4532.1,-472.8C4732.6,-560 4939.8,-650.2 5366.6,-740.1C5793.3,-830 6019.4,-831.1 6238,-832.2C6440.2,-833.2 6631.2,-834.1 7007.5,-913.4L7111.8,-418.2C6685.1,-328.3 6459,-327.2 6240.4,-326.1C6038.2,-325.1 5847.2,-324.2 5470.9,-244.9C5094.6,-165.6 4919.4,-89.4 4734,-8.7C4533.5,78.5 4326.3,168.7 3899.5,258.6C3472.8,348.5 3246.8,349.6 3028.2,350.7C2826,351.7 2635,352.6 2258.7,431.9C1882.4,511.2 1707.3,587.4 1521.8,668C1321.4,755.2 1114.1,845.4 687.4,935.3C260.7,1025.2 34.7,1026.3 -183.9,1027.4C-386.1,1028.4 -577.1,1029.3 -953.4,1108.6C-1329.7,1187.9 -1504.8,1264.1 -1690.2,1344.7C-1890.6,1431.9 -2097.9,1522.1 -2524.6,1612C-2951.3,1701.9 -3177.3,1703 -3395.9,1704.1C-3598.1,1705.1 -3789.1,1706 -4165.4,1785.3Z" style="fill:rgb(152,116,178);fill-rule:nonzero;"/>
        </g>
    </g>
</svg>
